<svg width="35" height="34" viewBox="0 0 35 34" fill="none" xmlns="http://www.w3.org/2000/svg">
<path d="M15.0726 29.75C15.3091 30.1813 15.6567 30.541 16.0793 30.7915C16.5018 31.042 16.9837 31.1742 17.4746 31.1742C17.9655 31.1742 18.4474 31.042 18.8699 30.7915C19.2925 30.541 19.6401 30.1813 19.8766 29.75M8.99672 11.3333C8.99672 9.07897 9.88992 6.91696 11.4798 5.32291C13.0697 3.72885 15.2261 2.83331 17.4745 2.83331C19.723 2.83331 21.8794 3.72885 23.4693 5.32291C25.0592 6.91696 25.9523 9.07897 25.9523 11.3333C25.9523 21.25 30.1913 24.0833 30.1913 24.0833H4.75781C4.75781 24.0833 8.99672 21.25 8.99672 11.3333Z" stroke="black" stroke-width="2" stroke-linecap="round" stroke-linejoin="round"/>
</svg>
