<svg width="20" height="20" viewBox="0 0 20 20" fill="none" xmlns="http://www.w3.org/2000/svg">
<path d="M5 1V19M2 1H8C8.55228 1 9 1.44772 9 2V18C9 18.5523 8.55228 19 8 19H2C1.44772 19 1 18.5523 1 18V2C1 1.44772 1.44772 1 2 1ZM18.4 16.9002C18.6 17.4002 18.3 18.0002 17.8 18.2002L15.9 18.9002C15.4 19.1002 14.8 18.8002 14.6 18.3002L9.1 3.10024C8.9 2.60024 9.2 2.00024 9.7 1.80024L11.6 1.10024C12.1 0.900244 12.7 1.20024 12.9 1.70024L18.4 16.9002Z" stroke="black" stroke-width="2" stroke-linecap="round" stroke-linejoin="round"/>
</svg>
