<svg width="27" height="27" viewBox="0 0 27 27" fill="none" xmlns="http://www.w3.org/2000/svg">
<path d="M9 4.5H6.75C6.15326 4.5 5.58097 4.73705 5.15901 5.15901C4.73705 5.58097 4.5 6.15326 4.5 6.75V22.5C4.5 23.0967 4.73705 23.669 5.15901 24.091C5.58097 24.5129 6.15326 24.75 6.75 24.75H20.25C20.8467 24.75 21.419 24.5129 21.841 24.091C22.2629 23.669 22.5 23.0967 22.5 22.5M18 4.5H20.25C20.8467 4.5 21.419 4.73705 21.841 5.15901C22.2629 5.58097 22.5 6.15326 22.5 6.75V9M12.375 15.75H23.625M23.625 15.75L19.125 11.25M23.625 15.75L19.125 20.25M16.875 2.25H10.125C9.82663 2.25 9.54048 2.36853 9.32951 2.5795C9.11853 2.79048 9 3.07663 9 3.375V5.625C9 6.3 9.45 6.75 10.125 6.75H16.875C17.55 6.75 18 6.3 18 5.625V3.375C18 2.7 17.55 2.25 16.875 2.25Z" stroke="black" stroke-width="2" stroke-linecap="round" stroke-linejoin="round"/>
</svg>
