<svg width="42" height="37" viewBox="0 0 42 37" fill="none" xmlns="http://www.w3.org/2000/svg">
<path d="M15.0726 32.75C15.3091 33.1813 15.6567 33.541 16.0793 33.7915C16.5018 34.042 16.9837 34.1742 17.4746 34.1742C17.9655 34.1742 18.4474 34.042 18.8699 33.7915C19.2925 33.541 19.6401 33.1813 19.8766 32.75M8.99672 14.3333C8.99672 12.079 9.88992 9.91696 11.4798 8.32291C13.0697 6.72885 15.2261 5.83331 17.4745 5.83331C19.723 5.83331 21.8794 6.72885 23.4693 8.32291C25.0592 9.91696 25.9523 12.079 25.9523 14.3333C25.9523 24.25 30.1913 27.0833 30.1913 27.0833H4.75781C4.75781 27.0833 8.99672 24.25 8.99672 14.3333Z" stroke="black" stroke-width="2" stroke-linecap="round" stroke-linejoin="round"/>
<ellipse cx="30.5" cy="11" rx="11.5" ry="11" fill="#FB1010"/>
</svg>
