<svg width="21" height="21" viewBox="0 0 21 21" fill="none" xmlns="http://www.w3.org/2000/svg">
<path d="M12.5309 11.4688L4.61888 19.3798C4.22105 19.7776 3.68149 20.0011 3.11888 20.0011C2.55627 20.0011 2.0167 19.7776 1.61888 19.3798C1.22105 18.9819 0.997559 18.4424 0.997559 17.8798C0.997559 17.3172 1.22105 16.7776 1.61888 16.3798L9.53088 8.46777M13.686 3.31414C12.1763 2.37363 10.4832 1.76616 8.71991 1.53232C6.95661 1.29848 5.16372 1.44365 3.46102 1.95814C3.30944 2.05464 3.18666 2.19021 3.10559 2.35057C3.02452 2.51094 2.98817 2.69019 3.00035 2.86947C3.01252 3.04876 3.07278 3.22144 3.17479 3.36938C3.2768 3.51731 3.41678 3.63503 3.58002 3.71014C5.85742 4.48797 7.99177 5.63419 9.89802 7.10314M17.686 7.31396C18.6264 8.82373 19.2338 10.5168 19.4677 12.2801C19.7015 14.0434 19.5564 15.8363 19.042 17.539C18.9454 17.6903 18.8099 17.8128 18.6496 17.8937C18.4893 17.9746 18.3103 18.0109 18.1312 17.9987C17.9521 17.9866 17.7795 17.9264 17.6317 17.8246C17.4839 17.7227 17.3662 17.583 17.291 17.42C16.5132 15.1422 15.367 13.0075 13.8979 11.101M15.6999 2.69992C15.513 2.51669 15.2617 2.41406 14.9999 2.41406C14.7382 2.41406 14.4868 2.51669 14.2999 2.69992L9.69992 7.29992C9.51669 7.48685 9.41406 7.73817 9.41406 7.99992C9.41406 8.26167 9.51669 8.51299 9.69992 8.69992L12.2999 11.2999C12.4868 11.4831 12.7382 11.5858 12.9999 11.5858C13.2617 11.5858 13.513 11.4831 13.6999 11.2999L18.2999 6.69992C18.4831 6.51299 18.5858 6.26167 18.5858 5.99992C18.5858 5.73817 18.4831 5.48685 18.2999 5.29992L15.6999 2.69992Z" stroke="black" stroke-width="2" stroke-linecap="round" stroke-linejoin="round"/>
</svg>
