<svg xmlns="http://www.w3.org/2000/svg" xmlns:xlink="http://www.w3.org/1999/xlink" width="500" zoomAndPan="magnify" viewBox="0 0 375 374.999991" height="500" preserveAspectRatio="xMidYMid meet" version="1.0"><defs><g/><clipPath id="e7dc967bea"><path d="M 149.382812 291.933594 L 322.75 291.933594 L 322.75 309.226562 L 149.382812 309.226562 Z M 149.382812 291.933594 " clip-rule="nonzero"/></clipPath><clipPath id="62968ebe77"><path d="M 149.417969 308.601562 C 163.964844 302.101562 166.324219 301.253906 172.222656 300.546875 C 187.359375 298.636719 231.589844 301.183594 254.390625 300.261719 C 270.707031 299.558594 283.945312 298.566406 296.265625 296.871094 C 306.09375 295.601562 322.605469 291.925781 322.671875 291.996094 C 322.671875 292.070312 306.027344 296.023438 296.328125 297.4375 C 284.46875 299.132812 272.214844 299.980469 256.488281 300.6875 C 233.6875 301.605469 187.621094 299.132812 172.289062 301.039062 C 166.390625 301.746094 164.097656 302.664062 160.230469 304.007812 C 156.5625 305.351562 150.46875 309.519531 149.613281 309.164062 C 149.417969 309.023438 149.417969 308.601562 149.417969 308.601562 " clip-rule="nonzero"/></clipPath><clipPath id="d51d676e33"><path d="M 112.5 126.398438 L 262.5 126.398438 L 262.5 201.398438 L 112.5 201.398438 Z M 112.5 126.398438 " clip-rule="nonzero"/></clipPath></defs><rect x="-37.5" width="450" fill="#ffffff" y="-37.499999" height="449.999989" fill-opacity="1"/><rect x="-37.5" width="450" fill="#ffffff" y="-37.499999" height="449.999989" fill-opacity="1"/><g fill="#00703c" fill-opacity="1"><g transform="translate(105.480101, 230.072051)"><g><path d="M 2.296875 0 L 2.296875 -15.75 L 7.625 -15.75 C 8.8125 -15.75 9.84375 -15.53125 10.71875 -15.09375 C 11.59375 -14.65625 12.269531 -14.039062 12.75 -13.25 C 13.238281 -12.46875 13.484375 -11.539062 13.484375 -10.46875 C 13.484375 -9.382812 13.238281 -8.445312 12.75 -7.65625 C 12.269531 -6.875 11.59375 -6.265625 10.71875 -5.828125 C 9.84375 -5.390625 8.8125 -5.171875 7.625 -5.171875 L 4.28125 -5.171875 L 4.28125 0 Z M 4.28125 -7.015625 L 7.578125 -7.015625 C 10.160156 -7.015625 11.453125 -8.15625 11.453125 -10.4375 C 11.453125 -12.71875 10.160156 -13.859375 7.578125 -13.859375 L 4.28125 -13.859375 Z M 4.28125 -7.015625 "/></g></g></g><g fill="#00703c" fill-opacity="1"><g transform="translate(119.857587, 230.072051)"><g><path d="M 0.375 0 L 6.859375 -15.75 L 8.703125 -15.75 L 15.1875 0 L 13.09375 0 L 11.609375 -3.578125 L 3.9375 -3.578125 L 2.5 0 Z M 4.703125 -5.421875 L 10.875 -5.421875 L 7.78125 -12.984375 Z M 4.703125 -5.421875 "/></g></g></g><g fill="#00703c" fill-opacity="1"><g transform="translate(135.42757, 230.072051)"><g><path d="M 2.296875 0 L 2.296875 -15.75 L 8.296875 -15.75 C 9.390625 -15.75 10.34375 -15.539062 11.15625 -15.125 C 11.96875 -14.71875 12.597656 -14.140625 13.046875 -13.390625 C 13.492188 -12.640625 13.71875 -11.738281 13.71875 -10.6875 C 13.71875 -9.414062 13.390625 -8.363281 12.734375 -7.53125 C 12.078125 -6.695312 11.171875 -6.132812 10.015625 -5.84375 L 13.96875 0 L 11.59375 0 L 7.734375 -5.640625 L 4.28125 -5.640625 L 4.28125 0 Z M 4.28125 -7.53125 L 8.078125 -7.53125 C 9.234375 -7.53125 10.125 -7.804688 10.75 -8.359375 C 11.382812 -8.910156 11.703125 -9.6875 11.703125 -10.6875 C 11.703125 -11.6875 11.382812 -12.460938 10.75 -13.015625 C 10.125 -13.578125 9.234375 -13.859375 8.078125 -13.859375 L 4.28125 -13.859375 Z M 4.28125 -7.53125 "/></g></g></g><g fill="#00703c" fill-opacity="1"><g transform="translate(150.750052, 230.072051)"><g><path d="M 6.09375 0 L 6.09375 -13.859375 L 0.765625 -13.859375 L 0.765625 -15.75 L 13.390625 -15.75 L 13.390625 -13.859375 L 8.078125 -13.859375 L 8.078125 0 Z M 6.09375 0 "/></g></g></g><g fill="#00703c" fill-opacity="1"><g transform="translate(164.925035, 230.072051)"><g><path d="M 2.296875 0 L 2.296875 -15.75 L 4.15625 -15.75 L 12.875 -3.421875 L 12.875 -15.75 L 14.8125 -15.75 L 14.8125 0 L 12.953125 0 L 4.25 -12.328125 L 4.25 0 Z M 2.296875 0 "/></g></g></g><g fill="#00703c" fill-opacity="1"><g transform="translate(182.025014, 230.072051)"><g><path d="M 2.296875 0 L 2.296875 -15.75 L 11.859375 -15.75 L 11.859375 -13.90625 L 4.28125 -13.90625 L 4.28125 -8.9375 L 11.296875 -8.9375 L 11.296875 -7.109375 L 4.28125 -7.109375 L 4.28125 -1.84375 L 12.109375 -1.84375 L 12.109375 0 Z M 2.296875 0 "/></g></g></g><g fill="#00703c" fill-opacity="1"><g transform="translate(195.592499, 230.072051)"><g><path d="M 2.296875 0 L 2.296875 -15.75 L 8.296875 -15.75 C 9.390625 -15.75 10.34375 -15.539062 11.15625 -15.125 C 11.96875 -14.71875 12.597656 -14.140625 13.046875 -13.390625 C 13.492188 -12.640625 13.71875 -11.738281 13.71875 -10.6875 C 13.71875 -9.414062 13.390625 -8.363281 12.734375 -7.53125 C 12.078125 -6.695312 11.171875 -6.132812 10.015625 -5.84375 L 13.96875 0 L 11.59375 0 L 7.734375 -5.640625 L 4.28125 -5.640625 L 4.28125 0 Z M 4.28125 -7.53125 L 8.078125 -7.53125 C 9.234375 -7.53125 10.125 -7.804688 10.75 -8.359375 C 11.382812 -8.910156 11.703125 -9.6875 11.703125 -10.6875 C 11.703125 -11.6875 11.382812 -12.460938 10.75 -13.015625 C 10.125 -13.578125 9.234375 -13.859375 8.078125 -13.859375 L 4.28125 -13.859375 Z M 4.28125 -7.53125 "/></g></g></g><g fill="#00703c" fill-opacity="1"><g transform="translate(210.914981, 230.072051)"><g><path d="M 7.53125 0.296875 C 6.269531 0.296875 5.175781 0.0820312 4.25 -0.34375 C 3.332031 -0.769531 2.625 -1.367188 2.125 -2.140625 C 1.625 -2.921875 1.363281 -3.820312 1.34375 -4.84375 L 3.328125 -4.84375 C 3.359375 -3.832031 3.757812 -3.035156 4.53125 -2.453125 C 5.300781 -1.878906 6.300781 -1.59375 7.53125 -1.59375 C 8.644531 -1.59375 9.523438 -1.8125 10.171875 -2.25 C 10.828125 -2.6875 11.15625 -3.296875 11.15625 -4.078125 C 11.15625 -4.804688 10.835938 -5.390625 10.203125 -5.828125 C 9.578125 -6.273438 8.550781 -6.664062 7.125 -7 C 5.195312 -7.457031 3.78125 -8.050781 2.875 -8.78125 C 1.976562 -9.507812 1.53125 -10.484375 1.53125 -11.703125 C 1.53125 -13.035156 2.035156 -14.09375 3.046875 -14.875 C 4.054688 -15.65625 5.425781 -16.046875 7.15625 -16.046875 C 8.925781 -16.046875 10.320312 -15.601562 11.34375 -14.71875 C 12.375 -13.832031 12.898438 -12.625 12.921875 -11.09375 L 10.953125 -11.09375 C 10.941406 -12.039062 10.59375 -12.785156 9.90625 -13.328125 C 9.226562 -13.878906 8.3125 -14.15625 7.15625 -14.15625 C 6.03125 -14.15625 5.148438 -13.929688 4.515625 -13.484375 C 3.878906 -13.046875 3.5625 -12.453125 3.5625 -11.703125 C 3.5625 -11.054688 3.851562 -10.507812 4.4375 -10.0625 C 5.03125 -9.625 6.09375 -9.21875 7.625 -8.84375 C 9.632812 -8.34375 11.066406 -7.722656 11.921875 -6.984375 C 12.773438 -6.242188 13.203125 -5.296875 13.203125 -4.140625 C 13.203125 -2.773438 12.6875 -1.691406 11.65625 -0.890625 C 10.632812 -0.0976562 9.257812 0.296875 7.53125 0.296875 Z M 7.53125 0.296875 "/></g></g></g><g fill="#00703c" fill-opacity="1"><g transform="translate(225.472471, 230.072051)"><g><path d="M 6.296875 0 L 6.296875 -5.671875 L 0.375 -15.75 L 2.671875 -15.75 L 5.25 -11.34375 L 7.296875 -7.78125 L 11.921875 -15.75 L 14.15625 -15.75 L 8.234375 -5.671875 L 8.234375 0 Z M 6.296875 0 "/></g></g></g><g fill="#00703c" fill-opacity="1"><g transform="translate(240.00745, 230.072051)"><g><path d="M 2.296875 0 L 2.296875 -15.75 L 4.15625 -15.75 L 12.875 -3.421875 L 12.875 -15.75 L 14.8125 -15.75 L 14.8125 0 L 12.953125 0 L 4.25 -12.328125 L 4.25 0 Z M 2.296875 0 "/></g></g></g><g fill="#00703c" fill-opacity="1"><g transform="translate(257.107429, 230.072051)"><g><path d="M 9.265625 0.296875 C 8.109375 0.296875 7.039062 0.09375 6.0625 -0.3125 C 5.09375 -0.71875 4.25 -1.285156 3.53125 -2.015625 C 2.820312 -2.742188 2.273438 -3.601562 1.890625 -4.59375 C 1.503906 -5.59375 1.3125 -6.6875 1.3125 -7.875 C 1.3125 -9.0625 1.503906 -10.148438 1.890625 -11.140625 C 2.273438 -12.140625 2.820312 -13.003906 3.53125 -13.734375 C 4.25 -14.460938 5.09375 -15.03125 6.0625 -15.4375 C 7.039062 -15.84375 8.109375 -16.046875 9.265625 -16.046875 C 10.515625 -16.046875 11.660156 -15.816406 12.703125 -15.359375 C 13.742188 -14.898438 14.632812 -14.242188 15.375 -13.390625 C 16.125 -12.546875 16.671875 -11.546875 17.015625 -10.390625 L 14.890625 -10.390625 C 14.484375 -11.535156 13.78125 -12.429688 12.78125 -13.078125 C 11.789062 -13.734375 10.644531 -14.0625 9.34375 -14.0625 C 8.164062 -14.0625 7.125 -13.796875 6.21875 -13.265625 C 5.320312 -12.742188 4.613281 -12.019531 4.09375 -11.09375 C 3.582031 -10.164062 3.328125 -9.09375 3.328125 -7.875 C 3.328125 -6.65625 3.582031 -5.582031 4.09375 -4.65625 C 4.613281 -3.726562 5.320312 -3 6.21875 -2.46875 C 7.125 -1.945312 8.164062 -1.6875 9.34375 -1.6875 C 10.675781 -1.6875 11.859375 -2.03125 12.890625 -2.71875 C 13.921875 -3.40625 14.640625 -4.34375 15.046875 -5.53125 L 17.140625 -5.53125 C 16.828125 -4.363281 16.289062 -3.34375 15.53125 -2.46875 C 14.78125 -1.601562 13.867188 -0.925781 12.796875 -0.4375 C 11.722656 0.0507812 10.546875 0.296875 9.265625 0.296875 Z M 9.265625 0.296875 "/></g></g></g><g clip-path="url(#e7dc967bea)"><g clip-path="url(#62968ebe77)"><path fill="#ffffff" d="M 146.796875 289.171875 L 325.246094 289.171875 L 325.246094 311.992188 L 146.796875 311.992188 Z M 146.796875 289.171875 " fill-opacity="1" fill-rule="nonzero"/></g></g><g clip-path="url(#d51d676e33)"><path fill="#00703c" d="M 150 126.398438 C 129.34375 126.398438 112.5 143.242188 112.5 163.898438 C 112.5 184.550781 129.34375 201.398438 150 201.398438 C 150.328125 201.398438 150.621094 201.398438 150.953125 201.324219 C 150.953125 201.324219 150.988281 201.324219 150.988281 201.285156 C 164.390625 200.847656 174.792969 191.4375 181.785156 182.390625 C 179.554688 178.984375 177.832031 175.910156 176.585938 173.566406 C 170.800781 182.023438 161.535156 192.023438 150 192.023438 C 134.398438 192.023438 121.875 179.496094 121.875 163.898438 C 121.875 148.296875 134.398438 135.773438 150 135.773438 C 159.777344 135.773438 168.015625 142.730469 173.988281 150.347656 C 179.957031 158 183.179688 165.691406 183.179688 165.691406 C 183.398438 166.203125 183.691406 166.644531 184.058594 167.046875 C 184.570312 168.253906 187.5 175.101562 193.835938 183.160156 C 200.71875 191.910156 211.121094 201.398438 224.890625 201.398438 C 245.542969 201.398438 262.464844 184.660156 262.5 163.96875 C 262.535156 143.316406 245.765625 126.398438 225.109375 126.398438 C 224.742188 126.398438 224.414062 126.433594 224.121094 126.46875 C 210.789062 126.945312 200.390625 136.285156 193.359375 145.292969 C 195.59375 148.734375 197.277344 151.8125 198.484375 154.191406 C 204.308594 145.769531 213.609375 135.773438 225.109375 135.773438 C 240.671875 135.773438 253.160156 148.371094 253.125 163.96875 C 253.089844 179.570312 240.527344 192.023438 224.890625 192.023438 C 215.550781 192.023438 207.238281 185.0625 201.195312 177.375 C 195.191406 169.683594 191.820312 161.957031 191.820312 161.957031 C 191.601562 161.480469 191.308594 161.039062 190.941406 160.675781 C 190.429688 159.429688 187.644531 152.652344 181.382812 144.632812 C 174.535156 135.84375 164.0625 126.398438 150 126.398438 Z M 150 126.398438 " fill-opacity="1" fill-rule="nonzero"/></g><g fill="#00703c" fill-opacity="1"><g transform="translate(126.796504, 248.372019)"><g><path d="M 1.21875 0 L 1.21875 -8.40625 L 4.0625 -8.40625 C 4.695312 -8.40625 5.25 -8.285156 5.71875 -8.046875 C 6.1875 -7.816406 6.546875 -7.488281 6.796875 -7.0625 C 7.054688 -6.644531 7.1875 -6.148438 7.1875 -5.578125 C 7.1875 -5.003906 7.054688 -4.503906 6.796875 -4.078125 C 6.546875 -3.660156 6.1875 -3.335938 5.71875 -3.109375 C 5.25 -2.878906 4.695312 -2.765625 4.0625 -2.765625 L 2.28125 -2.765625 L 2.28125 0 Z M 2.28125 -3.75 L 4.046875 -3.75 C 5.421875 -3.75 6.109375 -4.351562 6.109375 -5.5625 C 6.109375 -6.78125 5.421875 -7.390625 4.046875 -7.390625 L 2.28125 -7.390625 Z M 2.28125 -3.75 "/></g></g></g><g fill="#00703c" fill-opacity="1"><g transform="translate(134.464515, 248.372019)"><g><path d="M 1.21875 0 L 1.21875 -8.40625 L 4.421875 -8.40625 C 5.003906 -8.40625 5.507812 -8.289062 5.9375 -8.0625 C 6.375 -7.84375 6.710938 -7.535156 6.953125 -7.140625 C 7.191406 -6.742188 7.3125 -6.265625 7.3125 -5.703125 C 7.3125 -5.023438 7.132812 -4.460938 6.78125 -4.015625 C 6.4375 -3.566406 5.957031 -3.269531 5.34375 -3.125 L 7.453125 0 L 6.1875 0 L 4.125 -3.015625 L 2.28125 -3.015625 L 2.28125 0 Z M 2.28125 -4.015625 L 4.3125 -4.015625 C 4.925781 -4.015625 5.398438 -4.160156 5.734375 -4.453125 C 6.066406 -4.742188 6.234375 -5.160156 6.234375 -5.703125 C 6.234375 -6.234375 6.066406 -6.644531 5.734375 -6.9375 C 5.398438 -7.238281 4.925781 -7.390625 4.3125 -7.390625 L 2.28125 -7.390625 Z M 2.28125 -4.015625 "/></g></g></g><g fill="#00703c" fill-opacity="1"><g transform="translate(142.636534, 248.372019)"><g><path d="M 5.046875 0.15625 C 4.191406 0.15625 3.4375 -0.0234375 2.78125 -0.390625 C 2.125 -0.765625 1.613281 -1.28125 1.25 -1.9375 C 0.882812 -2.59375 0.703125 -3.347656 0.703125 -4.203125 C 0.703125 -5.054688 0.882812 -5.804688 1.25 -6.453125 C 1.613281 -7.109375 2.125 -7.625 2.78125 -8 C 3.4375 -8.375 4.191406 -8.5625 5.046875 -8.5625 C 5.898438 -8.5625 6.648438 -8.375 7.296875 -8 C 7.953125 -7.625 8.460938 -7.109375 8.828125 -6.453125 C 9.203125 -5.804688 9.390625 -5.054688 9.390625 -4.203125 C 9.390625 -3.347656 9.203125 -2.59375 8.828125 -1.9375 C 8.460938 -1.28125 7.953125 -0.765625 7.296875 -0.390625 C 6.648438 -0.0234375 5.898438 0.15625 5.046875 0.15625 Z M 1.78125 -4.203125 C 1.78125 -3.554688 1.914062 -2.984375 2.1875 -2.484375 C 2.46875 -1.984375 2.851562 -1.59375 3.34375 -1.3125 C 3.832031 -1.039062 4.398438 -0.90625 5.046875 -0.90625 C 5.691406 -0.90625 6.253906 -1.039062 6.734375 -1.3125 C 7.222656 -1.59375 7.601562 -1.984375 7.875 -2.484375 C 8.15625 -2.984375 8.296875 -3.554688 8.296875 -4.203125 C 8.296875 -4.859375 8.15625 -5.429688 7.875 -5.921875 C 7.601562 -6.410156 7.222656 -6.796875 6.734375 -7.078125 C 6.253906 -7.359375 5.691406 -7.5 5.046875 -7.5 C 4.398438 -7.5 3.832031 -7.359375 3.34375 -7.078125 C 2.851562 -6.796875 2.46875 -6.410156 2.1875 -5.921875 C 1.914062 -5.429688 1.78125 -4.859375 1.78125 -4.203125 Z M 1.78125 -4.203125 "/></g></g></g><g fill="#00703c" fill-opacity="1"><g transform="translate(152.716558, 248.372019)"><g><path d="M 0.53125 0 L 0.53125 -1.015625 L 1.734375 -1.015625 C 2.398438 -1.015625 2.859375 -1.175781 3.109375 -1.5 C 3.367188 -1.820312 3.5 -2.265625 3.5 -2.828125 L 3.5 -8.40625 L 4.5625 -8.40625 L 4.5625 -2.765625 C 4.5625 -1.941406 4.332031 -1.273438 3.875 -0.765625 C 3.414062 -0.253906 2.703125 0 1.734375 0 Z M 0.53125 0 "/></g></g></g><g fill="#00703c" fill-opacity="1"><g transform="translate(158.476575, 248.372019)"><g><path d="M 1.21875 0 L 1.21875 -8.40625 L 6.328125 -8.40625 L 6.328125 -7.421875 L 2.28125 -7.421875 L 2.28125 -4.765625 L 6.03125 -4.765625 L 6.03125 -3.796875 L 2.28125 -3.796875 L 2.28125 -0.984375 L 6.453125 -0.984375 L 6.453125 0 Z M 1.21875 0 "/></g></g></g><g fill="#00703c" fill-opacity="1"><g transform="translate(165.712594, 248.372019)"><g><path d="M 4.9375 0.15625 C 4.320312 0.15625 3.753906 0.0507812 3.234375 -0.15625 C 2.710938 -0.375 2.257812 -0.675781 1.875 -1.0625 C 1.5 -1.457031 1.207031 -1.921875 1 -2.453125 C 0.800781 -2.984375 0.703125 -3.566406 0.703125 -4.203125 C 0.703125 -4.828125 0.800781 -5.40625 1 -5.9375 C 1.207031 -6.476562 1.5 -6.941406 1.875 -7.328125 C 2.257812 -7.710938 2.710938 -8.015625 3.234375 -8.234375 C 3.753906 -8.453125 4.320312 -8.5625 4.9375 -8.5625 C 5.601562 -8.5625 6.210938 -8.4375 6.765625 -8.1875 C 7.328125 -7.945312 7.804688 -7.597656 8.203125 -7.140625 C 8.597656 -6.691406 8.890625 -6.160156 9.078125 -5.546875 L 7.9375 -5.546875 C 7.726562 -6.148438 7.359375 -6.625 6.828125 -6.96875 C 6.296875 -7.320312 5.679688 -7.5 4.984375 -7.5 C 4.359375 -7.5 3.804688 -7.359375 3.328125 -7.078125 C 2.847656 -6.796875 2.46875 -6.40625 2.1875 -5.90625 C 1.914062 -5.414062 1.78125 -4.847656 1.78125 -4.203125 C 1.78125 -3.554688 1.914062 -2.984375 2.1875 -2.484375 C 2.46875 -1.984375 2.847656 -1.59375 3.328125 -1.3125 C 3.804688 -1.039062 4.359375 -0.90625 4.984375 -0.90625 C 5.691406 -0.90625 6.320312 -1.085938 6.875 -1.453125 C 7.425781 -1.816406 7.8125 -2.316406 8.03125 -2.953125 L 9.140625 -2.953125 C 8.972656 -2.328125 8.6875 -1.78125 8.28125 -1.3125 C 7.882812 -0.851562 7.398438 -0.492188 6.828125 -0.234375 C 6.253906 0.0234375 5.625 0.15625 4.9375 0.15625 Z M 4.9375 0.15625 "/></g></g></g><g fill="#00703c" fill-opacity="1"><g transform="translate(175.504616, 248.372019)"><g><path d="M 3.25 0 L 3.25 -7.390625 L 0.40625 -7.390625 L 0.40625 -8.40625 L 7.140625 -8.40625 L 7.140625 -7.390625 L 4.3125 -7.390625 L 4.3125 0 Z M 3.25 0 "/></g></g></g><g fill="#00703c" fill-opacity="1"><g transform="translate(183.064628, 248.372019)"><g/></g></g><g fill="#00703c" fill-opacity="1"><g transform="translate(186.04063, 248.372019)"><g><path d="M 1.21875 0 L 1.21875 -8.40625 L 2.203125 -8.40625 L 5.515625 -3.421875 L 8.78125 -8.40625 L 9.765625 -8.40625 L 9.765625 0 L 8.71875 0 L 8.71875 -6.421875 L 5.921875 -2.234375 L 5.0625 -2.234375 L 2.28125 -6.4375 L 2.28125 0 Z M 1.21875 0 "/></g></g></g><g fill="#00703c" fill-opacity="1"><g transform="translate(197.032656, 248.372019)"><g><path d="M 0.203125 0 L 3.65625 -8.40625 L 4.640625 -8.40625 L 8.09375 0 L 6.984375 0 L 6.1875 -1.90625 L 2.09375 -1.90625 L 1.328125 0 Z M 2.515625 -2.890625 L 5.796875 -2.890625 L 4.15625 -6.921875 Z M 2.515625 -2.890625 "/></g></g></g><g fill="#00703c" fill-opacity="1"><g transform="translate(205.336672, 248.372019)"><g><path d="M 3.25 0 L 3.25 -7.390625 L 0.40625 -7.390625 L 0.40625 -8.40625 L 7.140625 -8.40625 L 7.140625 -7.390625 L 4.3125 -7.390625 L 4.3125 0 Z M 3.25 0 "/></g></g></g><g fill="#00703c" fill-opacity="1"><g transform="translate(212.896684, 248.372019)"><g><path d="M 4.9375 0.15625 C 4.320312 0.15625 3.753906 0.0507812 3.234375 -0.15625 C 2.710938 -0.375 2.257812 -0.675781 1.875 -1.0625 C 1.5 -1.457031 1.207031 -1.921875 1 -2.453125 C 0.800781 -2.984375 0.703125 -3.566406 0.703125 -4.203125 C 0.703125 -4.828125 0.800781 -5.40625 1 -5.9375 C 1.207031 -6.476562 1.5 -6.941406 1.875 -7.328125 C 2.257812 -7.710938 2.710938 -8.015625 3.234375 -8.234375 C 3.753906 -8.453125 4.320312 -8.5625 4.9375 -8.5625 C 5.601562 -8.5625 6.210938 -8.4375 6.765625 -8.1875 C 7.328125 -7.945312 7.804688 -7.597656 8.203125 -7.140625 C 8.597656 -6.691406 8.890625 -6.160156 9.078125 -5.546875 L 7.9375 -5.546875 C 7.726562 -6.148438 7.359375 -6.625 6.828125 -6.96875 C 6.296875 -7.320312 5.679688 -7.5 4.984375 -7.5 C 4.359375 -7.5 3.804688 -7.359375 3.328125 -7.078125 C 2.847656 -6.796875 2.46875 -6.40625 2.1875 -5.90625 C 1.914062 -5.414062 1.78125 -4.847656 1.78125 -4.203125 C 1.78125 -3.554688 1.914062 -2.984375 2.1875 -2.484375 C 2.46875 -1.984375 2.847656 -1.59375 3.328125 -1.3125 C 3.804688 -1.039062 4.359375 -0.90625 4.984375 -0.90625 C 5.691406 -0.90625 6.320312 -1.085938 6.875 -1.453125 C 7.425781 -1.816406 7.8125 -2.316406 8.03125 -2.953125 L 9.140625 -2.953125 C 8.972656 -2.328125 8.6875 -1.78125 8.28125 -1.3125 C 7.882812 -0.851562 7.398438 -0.492188 6.828125 -0.234375 C 6.253906 0.0234375 5.625 0.15625 4.9375 0.15625 Z M 4.9375 0.15625 "/></g></g></g><g fill="#00703c" fill-opacity="1"><g transform="translate(222.688706, 248.372019)"><g><path d="M 6.734375 0 L 6.734375 -3.78125 L 2.28125 -3.78125 L 2.28125 0 L 1.21875 0 L 1.21875 -8.40625 L 2.28125 -8.40625 L 2.28125 -4.78125 L 6.734375 -4.78125 L 6.734375 -8.40625 L 7.78125 -8.40625 L 7.78125 0 Z M 6.734375 0 "/></g></g></g><g fill="#00703c" fill-opacity="1"><g transform="translate(231.700722, 248.372019)"><g><path d="M 1.21875 0 L 1.21875 -8.40625 L 2.28125 -8.40625 L 2.28125 0 Z M 1.21875 0 "/></g></g></g><g fill="#00703c" fill-opacity="1"><g transform="translate(235.204731, 248.372019)"><g><path d="M 1.21875 0 L 1.21875 -8.40625 L 2.21875 -8.40625 L 6.859375 -1.828125 L 6.859375 -8.40625 L 7.890625 -8.40625 L 7.890625 0 L 6.90625 0 L 2.265625 -6.578125 L 2.265625 0 Z M 1.21875 0 "/></g></g></g><g fill="#00703c" fill-opacity="1"><g transform="translate(244.324745, 248.372019)"><g><path d="M 4.96875 0.15625 C 4.351562 0.15625 3.785156 0.0507812 3.265625 -0.15625 C 2.742188 -0.375 2.289062 -0.675781 1.90625 -1.0625 C 1.519531 -1.457031 1.222656 -1.921875 1.015625 -2.453125 C 0.804688 -2.984375 0.703125 -3.566406 0.703125 -4.203125 C 0.703125 -4.828125 0.800781 -5.40625 1 -5.9375 C 1.207031 -6.46875 1.503906 -6.925781 1.890625 -7.3125 C 2.273438 -7.707031 2.722656 -8.015625 3.234375 -8.234375 C 3.753906 -8.453125 4.320312 -8.5625 4.9375 -8.5625 C 5.582031 -8.5625 6.175781 -8.441406 6.71875 -8.203125 C 7.257812 -7.972656 7.726562 -7.648438 8.125 -7.234375 C 8.519531 -6.816406 8.804688 -6.332031 8.984375 -5.78125 L 7.84375 -5.78125 C 7.570312 -6.320312 7.1875 -6.742188 6.6875 -7.046875 C 6.195312 -7.347656 5.628906 -7.5 4.984375 -7.5 C 4.359375 -7.5 3.800781 -7.359375 3.3125 -7.078125 C 2.832031 -6.796875 2.457031 -6.40625 2.1875 -5.90625 C 1.914062 -5.414062 1.78125 -4.847656 1.78125 -4.203125 C 1.78125 -3.554688 1.914062 -2.984375 2.1875 -2.484375 C 2.46875 -1.984375 2.847656 -1.59375 3.328125 -1.3125 C 3.816406 -1.039062 4.367188 -0.90625 4.984375 -0.90625 C 5.554688 -0.90625 6.0625 -1.015625 6.5 -1.234375 C 6.9375 -1.460938 7.289062 -1.773438 7.5625 -2.171875 C 7.84375 -2.566406 8.019531 -3.023438 8.09375 -3.546875 L 4.6875 -3.546875 L 4.6875 -4.5625 L 9.234375 -4.5625 C 9.253906 -3.644531 9.085938 -2.832031 8.734375 -2.125 C 8.378906 -1.414062 7.878906 -0.859375 7.234375 -0.453125 C 6.585938 -0.046875 5.832031 0.15625 4.96875 0.15625 Z M 4.96875 0.15625 "/></g></g></g></svg>