<?xml version="1.0" encoding="UTF-8"?>
<svg id="Layer_1" xmlns="http://www.w3.org/2000/svg" viewBox="0 0 565.49 660.45">
  <defs>
    <style>
      .cls-1 {
        fill: #f6fafe;
      }

      .cls-2 {
        fill: #5a9efa;
      }

      .cls-3 {
        fill: #f7fafe;
      }

      .cls-4 {
        fill: #020304;
      }

      .cls-5 {
        fill: #fbfcfe;
      }

      .cls-6 {
        fill: #9abb50;
      }

      .cls-7 {
        fill: #eac117;
      }

      .cls-8 {
        fill: #f6f5f7;
      }

      .cls-9 {
        fill: #fefefe;
      }

      .cls-10 {
        fill: #a5c3cf;
      }

      .cls-11 {
        fill: #fbfcfd;
      }

      .cls-12 {
        fill: #00703c;
      }

      .cls-13 {
        fill: #fef9f9;
      }
    </style>
  </defs>
  <path class="cls-9" d="M278.19,550.68c-61.97,0-123.94-.06-185.9.13-4.45.01-5.35-.9-5.35-5.35.15-124.43.15-248.87,0-373.3,0-4.45.9-5.35,5.35-5.35,124.43.15,248.87.15,373.3,0,4.45,0,5.35.9,5.35,5.35-.15,124.43-.15,248.87,0,373.3,0,4.45-.89,5.36-5.35,5.35-62.47-.18-124.93-.12-187.4-.12ZM439.64,271.71c2.11-1.35,3.79-3.08,5.14-5.22,13.21-21,8.38-51.76-10.87-67.71-17.81-14.76-37.54-16.48-58.61-8.14-3.14-4.86-7.88-5.63-13.07-4.92-8.91,1.21-17.39,4.03-25.73,7.26-57.72,22.36-116.71,35.34-179.07,25.48-12.45-1.97-19.58,4.75-19.45,17.38.11,9.91,1.14,19.81,1.76,29.72-6.42.35-12.87-.63-19.29.95-10.27,2.52-13.93,7.61-12.94,18.09.8,8.42,2.71,16.61,4.49,24.83,14.76,67.97,38.56,133.32,57.71,200.02,3.08,10.72,9.42,17.67,21.01,19.35,10.07,1.46,19.98,2.02,30.26,1.39,40.25-2.47,79.74-9.22,118.4-20.33,18.27-5.25,36.98-10.31,52.52-22.18,6.44-4.92,13.67-9.93,14.64-18.84,1.02-9.42-.58-18.73-4.47-27.51,2.84-9.26,7.23-18.07,8.13-27.89.9-2.62-.6-4.85-1.32-7.13-8.92-28.3-13.87-57.39-17.62-86.73,1.11-.55,2.23-1.09,3.33-1.65,13.04-6.59,25.36-13.9,29.19-29.57.68-2.78,3.34-3.44,5.17-5.01,4.01-3.45,9.39-5.69,10.69-11.63Z"/>
  <path class="cls-6" d="M139.74,265.56c-.62-9.91-1.65-19.81-1.76-29.72-.13-12.64,7-19.35,19.45-17.38,62.36,9.86,121.35-3.12,179.07-25.48,8.33-3.23,16.82-6.06,25.73-7.26,5.19-.7,9.93.06,13.07,4.93-1.23.83-2.44,1.7-3.7,2.49-26.93,16.96-34.13,48.42-17.29,75.61,7.57,12.59,19.65,18.81,32.95,23.31l3.05,21.78c-.98,2.59-4.78,3.2-4.93,6.54.75.15,1.26.4,1.69.31,1.41-.3,2.79-.72,4.19-1.09,3.76,29.34,8.71,58.43,17.63,86.73.72,2.28,2.22,4.51,1.32,7.13-9.47,6.11-18.6,12.88-28.52,18.15-8.72,4.63-12.12,11.5-12.76,20.6-22.53,6.92-45.47,11.6-69.09,12.63-20.09.88-40.03.7-59.2-6.56,3.91-.67,7.8-1.5,11.73-1.97,7.15-.87,10.42-4.27,9.68-11.9-.65-6.74-2.28-13.15-4.1-19.6-1.21-4.31-3.66-5.95-8.05-5.96-8.51-.02-16.72,1.88-25.06,3.09-7.55,1.1-9.23,5.48-9.18,11.89.04,4.7,2.32,9.19,1.26,13.99-17.62-8.1-30.67-21.55-42.32-36.54-5.11-6.57-9.67-13.57-14.48-20.37l.14.16-1.25-2.96c-3.11-18.06-6.46-36.09-9.29-54.2-3.55-22.74-6.66-45.54-9.96-68.32ZM196.48,275.77c22.73-1.91,45.5-3.48,68.1-6.72,16.5-2.36,32.73-5.78,47.84-13.18,2.41-1.18,5.4-2.05,6-5.11,1.41-7.25-.43-14.15-4.96-19.59-3.51-4.22-8.54-.9-12.43.57-37.51,14.18-76.29,19.5-116.2,17.23-6.03-.34-11.01.68-12.58,7.48-1.56,6.75,1.5,13.53,7.53,16.27,5.26,2.39,10.88,3.4,16.71,3.06ZM220.7,299.43c-3.2.35-6.57.16-9.55,1.16-7.18,2.41-17.81-1.23-20.45,9.44-2,8.07.83,16.16,3.78,23.87.18.46.4.91.59,1.36,1.44,3.33,3.82,5.03,7.58,4.61,9.33-1.04,18.68-1.86,27.91-3.82,4.27-.91,5.67-3.26,5.89-7.19.38-6.8-1.49-13.21-2.91-19.74-1.56-7.17-4.8-11.39-12.85-9.68ZM233.61,359.18c-3.19.41-6.57.26-9.52,1.33-6.93,2.52-17.39-1.37-20.09,8.75-2.13,7.96.33,16.2,3.46,23.9.19.46.35.92.53,1.39,1.39,3.71,3.92,5.54,8,5.1,9.34-1.01,18.69-1.81,27.9-3.87,4.17-.93,5.66-3.39,5.89-7.32.38-6.82-1.77-13.2-3.1-19.73-1.48-7.24-5.14-11.18-13.06-9.56ZM264.25,366.93c1.13-.25,2.57-.59,4.02-.89,25.69-5.42,51.38-10.88,77.09-16.23,5.34-1.11,10.79-1.87,15.63-4.54,2.92-1.61,5.68-4.04,4.18-7.69-1.34-3.26-4.78-2.06-7.3-1.52-8.24,1.74-16.42,3.77-24.62,5.67-23.65,5.49-47.31,10.94-70.94,16.5-2.33.55-5.39,1.36-4.78,4.6.58,3.11,3.5,3.85,6.72,4.1ZM276.62,426.43c2.04-.44,3.98-.85,5.92-1.27,22.05-4.77,44.1-9.54,66.14-14.31,7.5-1.62,15.33-1.89,22.41-5.14,3.56-1.63,8.32-3.6,6.43-8.43-1.6-4.07-6.1-1.88-9.31-1.23-5.58,1.12-11.05,2.85-16.64,3.93-25.59,4.9-50.84,11.22-76.09,17.57-2.59.65-6.13,1.08-5.75,4.56.39,3.57,3.99,3.85,6.88,4.33ZM250.97,307.16c1.16-.27,2.6-.62,4.05-.93,23.02-4.91,46.04-9.81,69.05-14.71,7.74-1.65,15.78-2.17,23.02-5.68,2.92-1.41,6.21-3.56,5.16-7.27-1.24-4.38-5.31-2.74-8.25-2.15-5.83,1.16-11.51,3.07-17.34,4.18-25.82,4.9-51.24,11.49-76.77,17.66-2.67.64-5.95,1.36-5.56,4.77.35,3.11,3.46,3.83,6.63,4.13ZM268.81,390.91c16.01-2.96,31.09-5.84,46.22-8.5,6.61-1.16,13.34-1.81,19.1-5.63,2.35-1.56,4.39-3.93,3.15-6.86-1.19-2.81-4.04-2.19-6.55-1.63-20.8,4.62-41.61,9.16-62.38,13.86-2.54.57-6.13,1.24-5.64,4.72.49,3.49,3.87,4.06,6.11,4.04ZM281.84,450.51c.87-.15,1.85-.31,2.82-.49,13.35-2.57,26.7-5.19,40.06-7.69,7.28-1.36,14.79-1.92,21.35-5.8,2.43-1.44,4.46-3.53,3.6-6.68-.87-3.21-3.58-2.98-6.08-2.42-20.99,4.71-41.98,9.43-62.95,14.23-2.61.6-5.92,1.25-5.33,4.9.52,3.23,3.64,3.61,6.53,3.96ZM255.71,331.06c15.86-2.92,30.68-5.71,45.53-8.33,6.82-1.21,13.79-1.84,19.77-5.8,2.4-1.59,4.33-3.88,3.08-6.86-1.22-2.92-3.94-2.2-6.46-1.64-20.74,4.64-41.5,9.2-62.24,13.86-2.6.58-5.99,1.17-5.55,4.75.46,3.73,3.91,3.88,5.87,4.02Z"/>
  <path class="cls-7" d="M139.74,265.56c3.3,22.77,6.42,45.58,9.96,68.32,2.82,18.11,6.17,36.14,9.29,54.2.25,1.06-.64,2.6,1.25,2.96,0,0-.14-.16-.14-.16,4.92,27.3,9.73,54.62,14.85,81.88,1.31,6.97,6.73,10.76,12.92,13.4,9.98,4.26,20.58,5.44,31.26,6.24,29.86,2.22,59.68.97,89.42-1.74,20.01-1.82,40.02-4.15,59.36-10.14,3.1-1.16,5.27-3.55,7.73-5.6,11.19-9.33,18.9-21.38,26.42-33.58,3.89,8.78,5.49,18.09,4.47,27.51-.97,8.91-8.2,13.93-14.64,18.84-15.54,11.87-34.25,16.93-52.52,22.18-38.66,11.11-78.15,17.86-118.4,20.33-10.29.63-20.19.07-30.26-1.39-11.59-1.68-17.93-8.63-21.01-19.35-19.15-66.7-42.95-132.06-57.71-200.02-1.79-8.23-3.7-16.41-4.49-24.83-.99-10.47,2.67-15.56,12.94-18.09,6.42-1.58,12.86-.6,19.29-.95Z"/>
  <path class="cls-12" d="M354.3,268.73c-16.83-27.18-9.64-58.64,17.29-75.61,1.26-.79,2.47-1.66,3.7-2.49,21.07-8.34,40.81-6.62,58.61,8.14,19.24,15.95,24.08,46.71,10.87,67.71-1.35,2.15-3.03,3.87-5.14,5.22-13.24,1.42-26.48,2.85-39.73,4.27-1-2.86-2.24-5.77-5.73-5.89-3.87-.13-4.17,3.5-5.4,6.05-11.88-.7-23.21-3.93-34.49-7.41ZM426.14,225.05c-.66-8.85-5.72-15.47-14.29-19.3-8.4-3.76-16.57-2.9-23.67,3.14-6.85,5.83-8.94,13.43-6.97,22.17.97,4.29,3.62,6.72,8.01,5.76,4.26-.93,6.41-4.11,4.97-8.41-2.39-7.1,2.22-10.24,7.14-12.75,5.16-2.63,9.71-.35,13.27,3.66,5.87,6.62,4.67,12.71-3.61,17.66-7.9,4.73-14.45,10.5-17.11,19.7-.89,3.08-.96,6.42,2.45,7.61,2.96,1.04,4.45-2.05,5.14-4.24,2.04-6.4,6.58-10.2,12.08-13.48,7.75-4.63,12.08-11.56,12.6-21.52Z"/>
  <path class="cls-12" d="M399.91,275.98c13.24-1.42,26.48-2.85,39.73-4.27-1.3,5.95-6.68,8.18-10.69,11.64-1.83,1.58-4.49,2.23-5.17,5.01-3.84,15.67-16.16,22.98-29.19,29.57-1.11.56-2.22,1.1-3.34,1.65-1.4.38-2.78.8-4.19,1.09-.43.09-.93-.16-1.69-.31.15-3.34,3.95-3.95,4.93-6.54,2.34-1.14,3.62-3.28,4.94-5.34,7.58-11.88,5.68-15.75-7.99-16.44-13.3-4.5-25.37-10.73-32.95-23.31,11.28,3.48,22.61,6.71,34.48,7.41,3.78,5.35,7.5,6.04,11.13-.16Z"/>
  <path class="cls-10" d="M402.07,441.33c-7.52,12.2-15.23,24.25-26.42,33.58-2.46,2.05-4.64,4.45-7.73,5.6-.16-9.46-.09-18.91,1-28.33.63-9.1,4.04-15.97,12.76-20.6,9.92-5.27,19.05-12.03,28.52-18.15-.9,9.82-5.29,18.63-8.13,27.89Z"/>
  <path class="cls-10" d="M368.92,452.18c-1.09,9.42-1.15,18.87-1,28.33-19.34,5.98-39.35,8.31-59.36,10.14-29.74,2.71-59.56,3.96-89.42,1.74-10.68-.79-21.28-1.98-31.26-6.24-6.19-2.64-11.61-6.43-12.92-13.4-5.13-27.26-9.93-54.58-14.85-81.88,4.81,6.8,9.38,13.8,14.48,20.37,11.64,14.98,24.69,28.44,42.32,36.54,0,0-.04-.09-.04-.09-.24,1.14.56,1.31,1.38,1.46,2.11,8.46,7.37,11.41,15.8,9.3,2.08-.52,4.38-.16,6.58-.2,19.17,7.26,39.11,7.44,59.2,6.56,23.62-1.03,46.56-5.71,69.09-12.63Z"/>
  <path class="cls-7" d="M196.48,275.77c-5.83.34-11.44-.67-16.71-3.06-6.04-2.74-9.09-9.51-7.53-16.27,1.57-6.8,6.55-7.82,12.58-7.48,39.91,2.27,78.69-3.05,116.2-17.23,3.9-1.47,8.93-4.79,12.43-.57,4.53,5.44,6.38,12.34,4.96,19.59-.6,3.06-3.58,3.92-6,5.11-15.11,7.4-31.34,10.82-47.84,13.18-22.6,3.24-45.38,4.81-68.1,6.72Z"/>
  <path class="cls-5" d="M220.7,299.43c8.05-1.7,11.29,2.51,12.85,9.68,1.42,6.53,3.3,12.94,2.91,19.74-.22,3.94-1.63,6.29-5.89,7.19-9.23,1.96-18.58,2.78-27.91,3.82-3.76.42-6.14-1.29-7.58-4.61-.2-.45-.42-.9-.59-1.36-2.95-7.7-5.78-15.79-3.78-23.87,2.64-10.66,13.27-7.02,20.45-9.44,2.98-1,6.35-.81,9.55-1.16Z"/>
  <path class="cls-5" d="M233.61,359.18c7.92-1.62,11.59,2.32,13.06,9.56,1.33,6.53,3.48,12.91,3.1,19.73-.22,3.93-1.72,6.39-5.89,7.32-9.21,2.05-18.56,2.86-27.9,3.87-4.08.44-6.61-1.4-8-5.1-.17-.46-.34-.93-.53-1.39-3.13-7.7-5.58-15.94-3.46-23.9,2.7-10.12,13.16-6.24,20.09-8.75,2.94-1.07,6.33-.92,9.52-1.33Z"/>
  <path class="cls-11" d="M240.62,458.25c-2.2.04-4.5-.32-6.58.2-8.44,2.11-13.69-.84-15.8-9.3-.06-.86-.21-1.63-1.38-1.46,0,0,.04.09.04.09,1.06-4.79-1.22-9.28-1.26-13.99-.05-6.41,1.63-10.79,9.18-11.89,8.34-1.22,16.55-3.11,25.06-3.09,4.38.01,6.84,1.66,8.05,5.96,1.81,6.46,3.45,12.86,4.1,19.6.74,7.63-2.54,11.03-9.68,11.9-3.93.48-7.82,1.3-11.73,1.97Z"/>
  <path class="cls-3" d="M264.25,366.93c-3.22-.25-6.14-.99-6.72-4.1-.61-3.24,2.45-4.06,4.78-4.6,23.63-5.56,47.29-11.01,70.94-16.5,8.2-1.9,16.38-3.93,24.62-5.67,2.52-.53,5.96-1.73,7.3,1.52,1.5,3.65-1.26,6.08-4.18,7.69-4.84,2.67-10.29,3.43-15.63,4.54-25.71,5.35-51.4,10.8-77.09,16.23-1.45.31-2.89.64-4.02.89Z"/>
  <path class="cls-3" d="M276.62,426.43c-2.89-.48-6.49-.76-6.88-4.33-.38-3.48,3.16-3.91,5.75-4.56,25.25-6.34,50.5-12.67,76.09-17.57,5.59-1.07,11.06-2.8,16.64-3.93,3.21-.64,7.71-2.84,9.31,1.23,1.89,4.83-2.87,6.8-6.43,8.43-7.09,3.25-14.92,3.52-22.41,5.14-22.05,4.77-44.1,9.54-66.14,14.31-1.94.42-3.88.83-5.92,1.27Z"/>
  <path class="cls-3" d="M250.97,307.16c-3.17-.3-6.28-1.02-6.63-4.13-.39-3.42,2.89-4.13,5.56-4.77,25.52-6.17,50.95-12.76,76.77-17.66,5.83-1.11,11.51-3.01,17.34-4.18,2.94-.59,7.01-2.23,8.25,2.15,1.05,3.71-2.25,5.86-5.16,7.27-7.24,3.51-15.28,4.03-23.02,5.68-23.02,4.9-46.04,9.8-69.05,14.71-1.45.31-2.89.66-4.05.93Z"/>
  <path class="cls-3" d="M268.81,390.91c-2.24.02-5.62-.56-6.11-4.04-.49-3.48,3.1-4.15,5.64-4.72,20.78-4.7,41.59-9.24,62.38-13.86,2.51-.56,5.36-1.18,6.55,1.63,1.24,2.93-.8,5.3-3.15,6.86-5.76,3.82-12.49,4.47-19.1,5.63-15.13,2.65-30.21,5.54-46.22,8.5Z"/>
  <path class="cls-1" d="M281.84,450.51c-2.89-.35-6.01-.73-6.53-3.96-.59-3.65,2.72-4.3,5.33-4.9,20.97-4.8,41.96-9.53,62.95-14.23,2.5-.56,5.21-.79,6.08,2.42.86,3.15-1.18,5.24-3.6,6.68-6.56,3.89-14.06,4.44-21.35,5.8-13.37,2.5-26.71,5.12-40.06,7.69-.97.19-1.94.34-2.82.49Z"/>
  <path class="cls-3" d="M255.71,331.06c-1.95-.14-5.4-.29-5.87-4.02-.44-3.58,2.95-4.17,5.55-4.75,20.74-4.66,41.5-9.22,62.24-13.86,2.52-.56,5.25-1.28,6.46,1.64,1.24,2.98-.68,5.27-3.08,6.86-5.98,3.96-12.95,4.59-19.77,5.8-14.85,2.62-29.67,5.42-45.53,8.33Z"/>
  <path class="cls-4" d="M160.24,391.03c-1.9-.36-1-1.9-1.25-2.96.42.99.84,1.97,1.25,2.96Z"/>
  <path class="cls-13" d="M426.14,225.05c-.52,9.96-4.85,16.89-12.6,21.52-5.5,3.29-10.04,7.08-12.08,13.48-.7,2.19-2.19,5.28-5.14,4.24-3.41-1.2-3.34-4.54-2.45-7.61,2.66-9.2,9.2-14.97,17.11-19.7,8.28-4.95,9.49-11.04,3.61-17.66-3.56-4.01-8.1-6.29-13.27-3.66-4.92,2.51-9.53,5.65-7.14,12.75,1.44,4.3-.71,7.48-4.97,8.41-4.38.96-7.04-1.47-8.01-5.76-1.97-8.74.12-16.34,6.97-22.17,7.1-6.04,15.27-6.91,23.67-3.14,8.57,3.84,13.63,10.46,14.29,19.3Z"/>
  <path class="cls-8" d="M399.91,275.98c-3.62,6.2-7.34,5.51-11.13.16,1.22-2.55,1.52-6.19,5.4-6.05,3.49.12,4.72,3.04,5.73,5.89Z"/>
  <path class="cls-2" d="M216.87,447.69c1.16-.18,1.32.6,1.38,1.46-.81-.15-1.62-.31-1.38-1.46Z"/>
</svg>