<svg viewBox="0 0 1176.4705882352941 449.40008" xmlns:xlink="http://www.w3.org/1999/xlink" xmlns="http://www.w3.org/2000/svg" id="Layer_9" style="max-height: 500px" width="1176.4705882352941" height="449.40008">
  <defs>
    <style>
      .cls-1 {
        fill: none;
      }

      .cls-2 {
        fill: #b1654d;
      }

      .cls-3 {
        fill: #a45b4a;
      }

      .cls-4 {
        fill: #ff735d;
      }

      .cls-5 {
        fill: #fc9381;
      }

      .cls-6 {
        fill: #375a64;
      }

      .cls-7 {
        fill: #b4675a;
      }

      .cls-8 {
        fill: #3a2821;
      }

      .cls-9 {
        fill: #c17759;
      }

      .cls-10 {
        fill: #1a2e35;
      }

      .cls-11 {
        fill: #e09b8d;
      }

      .cls-12 {
        fill: #896119;
      }

      .cls-13 {
        fill: #e0af84;
      }

      .cls-14 {
        fill: #473c38;
      }

      .cls-15 {
        fill: #9e4000;
      }

      .cls-16 {
        fill: #eaa16e;
      }

      .cls-17 {
        fill: #583850;
      }

      .cls-18 {
        fill: #e68a79;
      }

      .cls-19 {
        fill: #db8a76;
      }

      .cls-20 {
        clip-path: url(#clippath-1);
      }

      .cls-21 {
        fill: #9abb50;
      }

      .cls-22, .cls-23 {
        fill: #fff;
      }

      .cls-24 {
        fill: #c47e62;
      }

      .cls-25 {
        fill: #f9f9f9;
      }

      .cls-26 {
        fill: #eac117;
      }

      .cls-23 {
        stroke: #000;
        stroke-miterlimit: 10;
        stroke-width: .25px;
      }

      .cls-27 {
        fill: #dbb975;
      }

      .cls-28 {
        fill: #2a1f2d;
      }

      .cls-29 {
        fill: #d4c9fc;
      }

      .cls-30 {
        opacity: .3;
      }

      .cls-31 {
        fill: #e1e1e1;
      }

      .cls-32 {
        fill: #ffbf9d;
      }

      .cls-33 {
        fill: #3f2b12;
      }

      .cls-34 {
        fill: #ecd160;
      }

      .cls-35 {
        fill: #a5c3cf;
      }

      .cls-36 {
        fill: #a06c48;
      }

      .cls-37 {
        fill: #eec9e2;
      }

      .cls-38 {
        clip-path: url(#clippath);
      }

      .cls-39 {
        fill: #ff9a6c;
      }
    </style>
    <clipPath id="clippath">
      <rect height="450" width="1099" x="1" class="cls-1"/>
    </clipPath>
    <clipPath id="clippath-1">
      <rect height="450" width="1099" class="cls-1"/>
    </clipPath>
  </defs>
  <g class="cls-38">
    <path d="M725.72,463.44c9.53-8.42,19.41-17.67,19.04-27.35-.59-15.53-21.41-24.96-18.62-41.46,2.48-14.69,24.6-20.74,36.92-31.82,9.78-8.8,13.25-21.8,8.82-33.03-4.44-11.23-16.62-20.28-30.95-22.99-22.56-4.27-48.67,6.01-68.35-3.79-11.72-5.84-17.55-21.04-29.38-25.79-5.29-2.13-11.07-.88-16.69-2.76-6.92-2.32-13.12-7.1-19.17-11.02-19.01-12.36-41.19-22.23-63.79-19.77-27.22,2.96-48.39,22.28-70.28,36.65-10.5,6.89-22.98,15.08-35.72,17-14.85,2.25-30.63-5.26-45.45-7.02-25.79-3.05-53.28,8.07-65.45,26.5-3.21,4.85-5.4,10.08-7.59,15.29-3.55,8.45-7.09,16.9-10.64,25.35-4.9,11.69-9.86,23.6-10.12,35.93-.35,16.48,8.22,32.97,23.07,44.41,14.85,11.44,35.78,17.67,56.38,16.78,9.13-.39,19.9-1.65,25.98,3.81,8.71,7.82,8.01-18.49,11.26-8.34,2.57,8.04,19.63-.34,30,0s4.85,49.25,14.36,45.93c9.51-3.32,19.25-6.85,29.62-7.16,16.99-.51,32.24,7.56,48.28,12.04,16.04,4.48,37.84,3.61,45.22-8.62,4.65-7.71,3.08-18.98,12.73-22.69,10.46-4.02,16.6,5.01,24.45,9.44,11.91,6.72,27.09,10.36,39.9,15.25,10.97,4.19,23.56,8.34,34.05,3.06,7.92-3.98,12.39-12.29,17.51-19.48,3.15-4.42,8.81-9.23,14.6-14.34Z" class="cls-29"/>
    <g class="cls-20">
      <path d="M35.37,215.2l74.95,2.04c.43,36.15,9.73,65.4,20.72,95.53,2.79,7.66,6.35,14.91,8.48,22.89,2.14,7.98,2.71,17.12-.41,24.57-6.36-1.82-19.99,1.53-26.35-.28-.06-2.45-.11-4.9-.17-7.34-.41,3.19-2.41,6.09-4.81,7.53-3.09,1.85-6.66,1.83-10.09,1.69-19.83-.79-39.6-4.16-58.88-10.04-2.56-.78-17.93,3.55-17.93,3.55-8.47-36.65,3.39-100.06,14.49-140.14Z" class="cls-15"/>
      <path d="M117.47,287.74l12.34,40.83s-.43-3.23,0,0c2.13,16.09,10.58,35.41,1.39,54.1l-2.46,22.75s14.98,50.52,16.57,58.05c1.18,15.86-115.33-.52-119.32-13.47l12-48-12.26-68.09c-.96-22.78,3.26-36.91,3.26-36.91l28.87-14.11,32.7,2.39,26.9,2.45Z" class="cls-13"/>
      <polygon points="121.9 302.22 180.97 330.51 162 367.5 109.36 355.58 121.9 302.22" class="cls-13"/>
      <path d="M1.76,375.86c-.03.06.42.35,1.3.77.87.42,2.19.94,3.89,1.36,3.36.86,8.39,1.16,13.5-.57,5.11-1.74,8.92-5.03,11.06-7.76,1.09-1.37,1.82-2.58,2.26-3.44.44-.87.62-1.38.56-1.4-.16-.09-1.1,1.85-3.35,4.4-2.22,2.54-5.95,5.61-10.85,7.28-4.9,1.66-9.73,1.49-13.03.82-3.34-.65-5.27-1.61-5.34-1.45Z" class="cls-13"/>
      <path d="M123.78,298.69c-.14.04.39,2.05,1.18,5.29.79,3.25,1.8,7.75,2.63,12.77.83,5.03,1.33,9.61,1.62,12.94.3,3.33.44,5.4.59,5.39.13,0,.23-2.08.11-5.44-.12-3.36-.51-7.99-1.35-13.06-.84-5.06-1.97-9.57-2.94-12.79-.97-3.22-1.74-5.15-1.86-5.11Z" class="cls-13"/>
      <path d="M50.22,287.71c-.13-.39-21.29,1.92-29.67,19.59-7.67,16.17-27.16,71.72-15.98,95.23,2.56,5.4,20.43,42.46,26.43,44.46,30.42,10.14,14-46,14-46l24.57,21.62-18.57-45.24-.78-89.66Z" class="cls-13"/>
      <path d="M99.81,314.29c.3-4.42-2.58-8.32-4.7-12.22-3.95-7.26-5.5-15.79-4.35-23.97l28.13,8.85c-1.9,2.61-3.17,9.01-1.88,13.04,1.28,4.02,3.47,7.92,3.31,12.14-.24,6.31-5.58,11.24-7.3,17.32-1.89,6.68,6.48,13.89,3.43,20.12-2.5,5.12-12.85,16.53-18.44,15.43-3.52-8.05-5.57-31.91-2.42-40.12,1.37-3.57,3.97-6.78,4.23-10.59Z" class="cls-15"/>
      <g>
        <g>
          <path d="M34.38,219.34c2.9-12.34,5.88-25.19,16.11-32.69,9.11-6.68,19.3-8.29,30.57-7.45,5.55.41,11.74,3.18,16.49,6.08,6.51,3.97,9.07,11.68,12.05,18.7,5.96,14.07,4.54,32.81.03,37.89l-58.92,28.7c-10.08-5.67-16.86-8.38-19.2-19.71-1.6-7.71,1.08-23.86,2.89-31.53Z" class="cls-15"/>
          <path d="M51.37,198.14l36.8-9.57c11.8-1.33,19.75,13.16,20.58,25,.92,13.16,1.52,29.26.03,39.09-2.57,16.92-13.53,14.43-16.78,15.34-.53.15-1.36,8.27-1.36,8.27,0,.84-.07,2.13-.11,4.94l.11,13.21c-4.86,16.03-21.1,14.09-41.38,5.77l-4.06-94.97c-.1-3.61,2.58-6.68,6.17-7.09Z" class="cls-18"/>
          <path d="M102.18,229.82c.06,1.34-1.03,2.49-2.43,2.57-1.39.08-2.57-.93-2.63-2.27-.06-1.34,1.03-2.49,2.42-2.57,1.4-.08,2.57.93,2.63,2.27Z" class="cls-10"/>
          <path d="M76.24,229.82c.06,1.34-1.03,2.49-2.42,2.57-1.39.08-2.57-.93-2.63-2.27-.06-1.34,1.03-2.49,2.42-2.57,1.4-.08,2.57.93,2.63,2.27Z" class="cls-10"/>
          <path d="M92,268s-11,2-24-3c0,0,5,6,23,8l1-5Z" class="cls-7"/>
          <path d="M80.05,244.85c.44-.03.49,2.93,3.04,5,2.55,2.08,5.7,1.7,5.73,2.12.04.19-.7.58-2.03.64-1.31.06-3.22-.33-4.78-1.6-1.56-1.27-2.25-2.98-2.36-4.19-.13-1.24.19-1.97.4-1.96Z" class="cls-10"/>
          <path d="M79.88,214.88c-.22.76-2.96.58-6.13,1.17-3.18.53-5.69,1.63-6.16.99-.21-.3.19-1.03,1.19-1.81.99-.78,2.59-1.57,4.49-1.9,1.9-.33,3.68-.14,4.87.26,1.2.4,1.83.94,1.74,1.3Z" class="cls-10"/>
          <path d="M105.32,218.03c-.64.52-2.59-.48-5.07-.96-2.46-.55-4.66-.41-5.03-1.13-.16-.35.28-.9,1.3-1.31,1.01-.41,2.61-.61,4.3-.26,1.7.35,3.08,1.17,3.83,1.95.77.78.94,1.46.66,1.72Z" class="cls-10"/>
        </g>
        <path d="M88.56,186.29c.9,7.97-.45,16.18-3.86,23.43-.95,2.03-2.1,4.02-3.79,5.49-1.7,1.46-4.04,2.33-6.21,1.8,3.47-4.28,5.55-9.66,5.87-15.16-2.51,5.54-5.09,11.18-9.2,15.66-4.11,4.48-10.07,7.7-16.11,6.99l.52-4.05c-.96,2.88-2.5,5.71-5.01,7.42-2.52,1.7-6.18,1.95-8.48-.04,2.32-9.83-3.44-20.72.62-29.97,2.81-6.4,9.64-10.09,16.36-12.01,9.45-2.7,19.63-2.83,29.15-.35" class="cls-15"/>
        <g>
          <path d="M87.73,186.43c.03.14.05.29.08.43l-.07.03c0-.15,0-.31,0-.46Z" class="cls-15"/>
          <path d="M87.81,186.86l1.21-.46c3.78-1.82,6.28-3.93,11.92,1.35,3.06,2.86,5.75,7.1,7.64,11.39,1.69,3.84,3.52,8,4.05,12.16.69,5.44.77,9.39,0,15.16-3.29-2.31-4.89-6.33-5.86-10.23-.97-3.9-1.49-7.98-3.35-11.54.48,3.32.95,6.72.32,10.02-.17.9-.46,1.84-1.15,2.44-.7.6-1.91.68-2.45-.06,1.33-3.79,1.2-7.96.3-11.88-.89-3.91-2.52-7.61-4.16-11.27.71,6.7.27,13.51-1.31,20.06-.23.94-.5,1.93-1.2,2.59-1.04,1-2.69.99-4.11.73-1.42-.25-2.89-.68-4.29-.3,3.52-9.58,4.37-20.13,2.43-30.16Z" class="cls-15"/>
        </g>
      </g>
      <path d="M54.7,217.46c4.62,10.51-2.67,22.65-.92,34,1.26,8.17,7.16,15.37,7.04,23.64-.12,8.38-6.49,16.04-5.4,24.35.67,5.13,4.06,9.41,6.66,13.88,5.89,10.11,1.02,45.16-1.07,56.67-8.76-.02-16.63-8.8-19.27-22.87-1.67-8.87-.87-18.18-4.64-26.39-2.41-5.25-5.73-10.29-6.32-16.04-.53-5.28,1.32-10.48,1.95-15.75,1.14-9.58-1.8-19.1-3.48-28.6-1.69-9.5-1.88-20.11,3.88-27.85" class="cls-15"/>
      <path d="M34.03,397.4c.53-8.87,3.42-27.94,4.33-36.76.76-4.39,1.53-8.77,2.3-13.24.79.46.72,1.06.63,1.63-2.14,12.5-4.96,34.23-6.49,46.82-.26.12-.53,1.44-.78,1.56Z" class="cls-17"/>
      <polyline points="161.08 547.35 159.22 478.33 280.26 480.67 296.74 544.75 161.08 547.35" class="cls-10"/>
      <path d="M221.31,285.46l-9.1,8.62s-34.03,8.46-39.97,14.4c-5.95,5.95-9.05,97.63-8.65,103.97.4,6.34-.02,61.44-.02,61.44,0,0-2,21.01,0,22.2,2,1.19,40.16,1.7,59.19,2.1,19.03.4,59.38,1.51,61.76-.47s-5.91-43.08-5.91-43.08l-3.3-18.95,1.02-33.14,6.96-45.59,5.15-47.17s-13.87-8.32-20.61-9.91c-6.74-1.59-46.52-14.42-46.52-14.42Z" class="cls-21"/>
      <path d="M321.66,417.82l-18.49-77.65c-1.47-6.16-3.59-12.15-6.36-17.85-2.87-5.89-6.42-12.32-8.37-12.54-11.47-1.32-17.44,33.69-17.44,33.69v44.39l10.83,48.08c1.66,7.38,7.11,13.32,14.32,15.61l73.39,23.36,8.5-36.43-56.37-20.67Z" class="cls-21"/>
      <path d="M190.56,301.54s-27.89,3.94-36.89,25.22c0,0-27.87,108.48-23.21,122.77s40.69,69.43,40.69,69.43l31.59-16.68s-30.87-64.07-30.87-71.13,18.7-129.61,18.7-129.61Z" class="cls-21"/>
      <path d="M202.73,502.28s-.07-.11-.18-.35c-.12-.26-.27-.6-.47-1.04-.41-.94-1-2.29-1.76-4-1.52-3.51-3.69-8.55-6.38-14.77-5.35-12.51-12.72-29.75-20.86-48.8-.37-.88-.75-1.75-1.09-2.56l-.02-.05v-.04c.08-1.31.34-2.53.59-3.75.27-1.21.53-2.42.82-3.61.56-2.38,1.16-4.71,1.75-7,1.2-4.57,2.35-8.97,3.45-13.16,2.21-8.37,4.18-15.9,5.79-22.22,1.61-6.32,2.83-11.44,3.67-14.98.41-1.75.72-3.11.95-4.07.11-.44.19-.79.26-1.06.06-.24.1-.36.1-.36s0,.13-.05.37c-.05.26-.12.62-.21,1.07-.2.96-.49,2.34-.85,4.1-.79,3.55-1.94,8.69-3.51,15.02-1.56,6.33-3.49,13.87-5.68,22.25-1.09,4.19-2.23,8.6-3.41,13.17-.58,2.29-1.18,4.62-1.74,6.99-.54,2.36-1.18,4.82-1.39,7.23l-.02-.1c.35.81.72,1.68,1.09,2.56,8.09,19.07,15.41,36.33,20.72,48.86,2.62,6.24,4.74,11.3,6.22,14.83.72,1.73,1.28,3.09,1.67,4.04.18.45.32.79.42,1.06.09.24.14.36.13.37Z" class="cls-10"/>
      <path d="M175.31,516.76l3.13,5.77s15.51-5.91,22.89-15.87l-2.04-1.96-23.98,12.06Z" class="cls-32"/>
      <path d="M205.9,501.02s-.29.54-.89,1.47c-.3.47-.67,1.03-1.15,1.66-.48.62-.98,1.37-1.64,2.11-.64.76-1.33,1.6-2.14,2.43-.78.87-1.69,1.72-2.64,2.62-1.94,1.76-4.19,3.58-6.7,5.26-2.53,1.67-5.06,3.05-7.43,4.18-2.38,1.1-4.57,1.98-6.45,2.6-.93.34-1.79.58-2.55.81-.75.23-1.41.4-1.94.53-1.07.26-1.67.39-1.68.36,0-.03.57-.23,1.63-.55.53-.16,1.17-.35,1.91-.61.74-.25,1.59-.51,2.51-.87,1.85-.66,4.02-1.57,6.36-2.69,2.33-1.15,4.84-2.53,7.34-4.18,2.5-1.66,4.73-3.45,6.67-5.18.95-.88,1.86-1.72,2.65-2.57.82-.81,1.52-1.63,2.17-2.37.67-.72,1.19-1.45,1.69-2.05.5-.6.89-1.15,1.21-1.6.65-.89,1.03-1.37,1.06-1.35Z" class="cls-6"/>
      <path d="M194.25,489.42s-.44.24-1.27.6c-.93.38-2.11.87-3.53,1.46-3.07,1.26-7.14,2.93-11.64,4.77-4.49,1.88-8.54,3.58-11.61,4.87-1.42.59-2.6,1.08-3.52,1.47-.84.34-1.3.51-1.32.48-.01-.03.43-.27,1.24-.66.81-.4,1.99-.95,3.46-1.62,2.93-1.34,7.01-3.13,11.56-5.01,4.54-1.88,8.69-3.51,11.71-4.64,1.51-.57,2.74-1.01,3.59-1.3.85-.29,1.33-.44,1.34-.41Z" class="cls-22"/>
      <path d="M361.65,434.12s-.04.52-.2,1.44c-.16.92-.42,2.24-.78,3.87-.72,3.26-1.86,7.73-3.41,12.57-1.56,4.85-3.22,9.15-4.53,12.22-.65,1.53-1.21,2.76-1.61,3.6-.4.84-.64,1.3-.67,1.28-.03-.01.14-.5.49-1.37.38-.96.87-2.19,1.46-3.66,1.22-3.1,2.82-7.4,4.38-12.24,1.55-4.83,2.74-9.27,3.55-12.5.38-1.54.7-2.83.94-3.83.22-.9.36-1.4.4-1.39Z" class="cls-22"/>
      <g>
        <g>
          <path d="M230.87,252.32c-.42-7.73-.79-15.5.12-23.18.92-7.68,3.2-15.34,7.67-21.66.68-.96,5.94-7.19,7.04-6.78.79.29-3.06,6.39-2.84,7.2,2.11,7.72,1.03,16.03-1.64,23.58-2.67,7.54-6.12,14.05-10.35,20.84" class="cls-10"/>
          <path d="M249.35,330.88c-11.53-3.33-33.23-25.9-30.15-37.5l18.52-69.78c4.38-18.91,19.03-32.11,37.81-27.21l1.71.55c17.2,5.58,27.23,23.43,23.05,41.03-3.89,16.36-12.68,47.01-18.3,54.03-4,5-17.54,3.52-17.54,3.52-.04-.01-1.21,4.14-2.67,9.41-3.28,11.83-10.19,23.43-12.43,25.95h0Z" class="cls-24"/>
          <path d="M264.46,295.52s-11.38-2.97-20.85-14.3c0,0,1.23,15.12,19.42,19.25l1.43-4.96Z" class="cls-9"/>
          <path d="M289.36,252.45c-.39,1.35-1.85,2.14-3.27,1.76-1.42-.38-2.25-1.78-1.87-3.13.39-1.35,1.85-2.14,3.26-1.76,1.42.38,2.26,1.78,1.87,3.13Z" class="cls-10"/>
          <path d="M294,244.55c-.42.23-1.88-1.81-4.6-2.69-2.71-.91-5.16-.16-5.35-.59-.1-.19.42-.69,1.49-1.04,1.06-.35,2.72-.49,4.41.06,1.69.56,2.92,1.65,3.53,2.55.63.91.72,1.6.52,1.7Z" class="cls-10"/>
          <path d="M264.5,245.25c-.39,1.35-1.85,2.14-3.27,1.76-1.42-.38-2.25-1.77-1.87-3.13.39-1.35,1.85-2.14,3.27-1.76,1.42.38,2.26,1.78,1.87,3.13Z" class="cls-10"/>
          <path d="M267.11,236.53c-.42.23-1.88-1.81-4.6-2.69-2.71-.91-5.16-.16-5.35-.59-.1-.19.41-.69,1.49-1.04,1.06-.35,2.72-.49,4.41.06,1.69.56,2.92,1.65,3.53,2.55.63.91.72,1.6.52,1.7Z" class="cls-10"/>
          <path d="M234.92,237.18c-.26-.23-11-7.55-14.54,4.69-3.54,12.23,9.47,13.27,9.6,12.92.12-.34,4.95-17.61,4.95-17.61Z" class="cls-24"/>
          <path d="M227.58,249.08c-.04-.05-.26.09-.66.15-.4.06-1.03,0-1.6-.43-1.16-.85-1.65-3.22-1.07-5.44.29-1.12.83-2.11,1.48-2.88.63-.79,1.39-1.24,2.08-1.17.69.04,1.04.56,1.09.95.06.39-.08.61-.02.65.03.04.32-.13.37-.66.02-.26-.04-.59-.26-.91-.22-.32-.62-.57-1.09-.65-.96-.21-2.06.41-2.78,1.25-.77.83-1.4,1.94-1.73,3.2-.64,2.49-.04,5.16,1.58,6.18.8.47,1.59.42,2.04.24.47-.19.61-.45.57-.48Z" class="cls-14"/>
          <path d="M300,216c-2-6-3.81-9.22-8.07-12.8-6.44-5.41-17.12-10.62-24.46-10.59-8.83.03-16.77,2.2-22.97,8.5-6.19,6.3-10.17,14.55-12.31,23.12-.65,2.61-1.14,5.39-.37,7.98.95,3.19,3.76,5.82,2.57,9.52-.44,1.35-.43,2.84.23,4.1,1.58,3.02,4.95,1.54,6.84-.35,4.04-4.05,5.95-9.7,7.72-15.14,1.26-3.86,1.86-7.26,1.81-11.32-.03-2.21-.09-2.79,0-5,.09-2.21,1.23-4.67,3-6,.29-.22,2.45-1.74,3-2,4.33-2.07,7.63-2.42,11.55.34,6.22,4.38,11.45,18.66,22.45,15.66,5.58-1.52,6.2-2,8-2,1,0,1-4,1-4Z" class="cls-10"/>
        </g>
        <path d="M262.11,259.98c-.17-.02-.46.62-.52,1.74-.08,1.11.23,2.77,1.21,4.22.95,1.46,2.13,2.44,3,3.07.88.63,1.49.92,1.61.78.12-.14-.28-.69-.98-1.48-.69-.79-1.69-1.83-2.51-3.1-1.71-2.51-1.39-5.22-1.81-5.24Z" class="cls-10"/>
      </g>
      <path d="M261.94,286.66c.1.19,1.41-.37,2.62-1.6,1.22-1.22,1.77-2.53,1.58-2.63-.2-.12-1.01.94-2.14,2.07-1.13,1.15-2.18,1.96-2.06,2.16Z" class="cls-10"/>
      <path d="M259.41,285.44c.16.15,1.24-.8,2.39-2.1,1.16-1.31,1.96-2.49,1.8-2.63-.16-.15-1.24.8-2.39,2.1-1.16,1.31-1.96,2.48-1.8,2.63Z" class="cls-10"/>
      <path d="M257.87,283.84c.21.07.79-1.08,1.31-2.56.51-1.49.76-2.75.56-2.82-.21-.07-.79,1.07-1.31,2.56-.51,1.49-.76,2.75-.56,2.82Z" class="cls-10"/>
      <path d="M255.54,283.39c.23-.05.01-1.52.31-3.27.28-1.76.95-3.08.75-3.2-.16-.13-1.23,1.13-1.54,3.07-.33,1.94.28,3.47.47,3.4Z" class="cls-10"/>
      <path d="M252.27,281.43c.23-.04.13-1.47.35-3.19.2-1.72.63-3.09.42-3.18-.19-.09-.99,1.23-1.21,3.08-.23,1.86.24,3.33.44,3.28Z" class="cls-10"/>
      <path d="M1064,358c-6-32.14-12.61-35.5-14.97-38.1s-48.31-23.76-48.31-23.76l-47.4,12-19.49,13.68c-3.72,4.6-9.81,11.54-10.53,17.42l-2.37,9.55,29.11,40.05,14.94,18.72.02,21.44-5.87,23.08,16.32,2.99s22.52,11.37,44.75,20.59c22.23,9.23,45.8,8.34,45.8,8.34,0,0,4.69-90.15-2-126Z" class="cls-35"/>
      <path d="M997.38,346.19l-15.09,78.16-58.49,70.03,21.55,25.47s32.79-26.79,49.6-44.17c16.81-17.38,24.51-27.74,24.51-27.74,0,0,30.5-78.98,31.22-89.17.72-10.19-1.57-31.82-11.7-34.62-10.13-2.8-37.03-1.68-41.6,22.03Z" class="cls-35"/>
      <path d="M920.93,348.79l1.25,66.73s-8.87,14.08-11.18,17.48l-42,32,10.68-9.54s41.32,2,47.59,1.2c6.27-.8,25.35-5.67,31.28-13.3,5.93-7.64,3.41-43.83,3.41-43.83l-41.03-50.74Z" class="cls-35"/>
      <path d="M964.98,407.57s-.15-.14-.41-.44c-.29-.35-.65-.78-1.09-1.32-.94-1.15-2.28-2.83-3.91-4.94-1.62-2.11-3.53-4.64-5.52-7.54-.99-1.46-2-3-2.96-4.67-.93-1.67-1.9-3.4-2.89-5.17-3.91-7.07-7.44-13.47-10.04-18.18-1.24-2.29-2.25-4.17-2.99-5.54-.32-.62-.58-1.12-.79-1.52-.18-.35-.26-.54-.24-.55.02,0,.13.16.34.5.23.38.52.87.87,1.47.77,1.35,1.84,3.2,3.13,5.46,2.63,4.69,6.21,11.06,10.17,18.1.99,1.77,1.95,3.5,2.88,5.17.95,1.65,1.94,3.2,2.92,4.65,1.96,2.91,3.83,5.46,5.41,7.59,1.56,2.08,2.84,3.79,3.77,5.04.41.56.75,1.02,1.01,1.38.23.32.34.49.33.5Z" class="cls-10"/>
      <path d="M1008.54,303.05s.48,1.16.75,3.4c.26,2.22.15,5.58-1.23,9.39-.7,1.89-1.71,3.88-3.09,5.82-1.41,1.92-3.17,3.77-5.28,5.41-4.21,3.3-9.71,5.73-15.73,6.97-6.02,1.23-12.1.99-17.14-.83-5.09-1.74-8.85-5.19-11.01-8.58-2.22-3.41-2.88-6.75-2.96-8.98-.05-.56,0-1.06.02-1.5,0-.43.06-.8.11-1.09.04-.27.08-.48.11-.66.03-.15.05-.22.06-.22.08,0-.22,1.23-.1,3.46.14,2.2.85,5.46,3.06,8.79,2.17,3.31,5.85,6.64,10.86,8.33,4.96,1.76,10.93,1.99,16.88.77,5.95-1.22,11.38-3.6,15.54-6.83,2.08-1.6,3.83-3.42,5.23-5.29,1.37-1.89,2.39-3.83,3.1-5.69,1.4-3.74,1.57-7.04,1.37-9.25-.05-.56-.1-1.05-.18-1.47-.06-.42-.12-.78-.2-1.07-.06-.26-.1-.48-.14-.66-.03-.15-.04-.23-.03-.23Z" class="cls-10"/>
      <path d="M985.39,332.8c-.15,0-.24-1.77-.75-3.88-.49-2.11-1.21-3.74-1.07-3.8.12-.07,1.07,1.5,1.58,3.68.52,2.18.38,4.01.25,4Z" class="cls-10"/>
      <path d="M997.47,327.94c-.15.05-.72-1.78-2.24-3.49-1.5-1.74-3.24-2.54-3.17-2.68.02-.13,1.96.5,3.56,2.34,1.61,1.82,1.98,3.83,1.85,3.83Z" class="cls-10"/>
      <path d="M1006.17,319.91c-.1.11-1.31-.84-2.94-1.74-1.63-.92-3.07-1.44-3.03-1.59.03-.13,1.59.18,3.28,1.13,1.7.94,2.78,2.1,2.69,2.2Z" class="cls-10"/>
      <path d="M1009.78,308.07c-.04.14-1.41-.16-3.12-.31-1.71-.16-3.11-.12-3.12-.27-.02-.14,1.4-.42,3.17-.25,1.77.16,3.12.7,3.07.83Z" class="cls-10"/>
      <path d="M968.18,332.58c-.13.01-.26-1.53.44-3.27.68-1.74,1.82-2.79,1.91-2.69.12.1-.79,1.24-1.42,2.88-.65,1.63-.77,3.09-.92,3.08Z" class="cls-10"/>
      <path d="M954.29,323.81c-.07-.13.87-.76,2.09-1.42,1.22-.66,2.27-1.09,2.34-.96.07.13-.87.76-2.09,1.42-1.22.66-2.27,1.09-2.34.96Z" class="cls-10"/>
      <path d="M1050.68,358.78s0,.15-.04.43c-.03.29-.07.72-.19,1.28-.2,1.13-.62,2.77-1.2,4.9-1.2,4.25-3.18,10.43-5.87,18.24-5.38,15.62-13.52,37.82-23.71,64.41v.03s-.03.02-.03.02c-4.55,5.92-9.69,11.82-15.16,17.82-5.49,5.98-11.28,12.13-17.62,18.08-12.65,11.93-26.64,23.93-41.34,36.07l-.2.16-.17-.2c-.63-.74-1.31-1.55-1.99-2.35-6.66-7.87-13.2-15.6-19.56-23.12l-.14-.17.14-.17c21.91-26.2,41.94-50.17,58.53-70l-.04.09c4.64-23.84,8.44-43.37,11.08-56.95,1.33-6.78,2.37-12.07,3.08-15.67.36-1.79.63-3.16.82-4.1.19-.92.3-1.4.3-1.4,0,0-.07.48-.24,1.41-.17.94-.43,2.31-.76,4.11-.68,3.61-1.69,8.91-2.97,15.7-2.6,13.59-6.34,33.13-10.91,56.98v.05s-.04.04-.04.04c-16.56,19.85-36.57,43.84-58.45,70.07v-.33c6.36,7.52,12.9,15.25,19.56,23.11.68.81,1.36,1.61,1.99,2.35l-.36-.03c14.69-12.13,28.68-24.12,41.33-36.03,6.34-5.93,12.12-12.07,17.62-18.04,5.47-5.99,10.61-11.88,15.15-17.77l-.03.05c10.23-26.57,18.43-48.74,23.88-64.33,2.72-7.8,4.74-13.95,5.98-18.19.6-2.12,1.05-3.75,1.26-4.87.13-.55.18-.98.23-1.27.04-.29.07-.43.07-.43Z" class="cls-10"/>
      <path d="M1040.6,332.05c-.08.07-1.23-1.57-3.7-3.59-2.43-2.01-6.35-4.28-11.13-5.09-4.79-.81-9.23.05-12.19,1.16-2.99,1.1-4.61,2.27-4.67,2.18-.02-.02.37-.33,1.13-.82.76-.48,1.91-1.11,3.41-1.71,2.97-1.21,7.51-2.15,12.41-1.33,4.9.83,8.88,3.21,11.28,5.32,1.22,1.06,2.1,2.02,2.66,2.73.56.7.83,1.12.8,1.14Z" class="cls-10"/>
      <g class="cls-30">
        <path d="M999.65,470.88c.3-.33.59-.66.89-1-.1.02-.2.05-.31.07l-.58.92Z"/>
        <path d="M1034.26,425.19c3.45-12.43,6.54-25,7.92-37.83-10.44,19.16-13.27,41.86-24.48,60.57-4.78,7.98-10.95,15.01-17.16,21.94,9.56-2.04,17.53-8.99,22.81-17.23,5.33-8.33,8.26-17.93,10.91-27.46Z"/>
      </g>
      <g class="cls-30">
        <path d="M962.56,404.45l-22.94-36.97c-3.16,9.25.88,19.42,5.92,27.8,5.04,8.38,12.35,18.61,16.85,27.29-.31-5.91.47-12.21.17-18.12Z"/>
      </g>
      <g>
        <g>
          <path d="M1002.31,313.09h0c.83-1.75,1.2-3.68,1.08-5.61l-4.34-72.91c.28-20.34-11.32-37.47-31.66-37.18l-1.88.14c-18.91,1.37-33.6,17.02-33.76,35.98-.15,17.63,1.81,62.49,11.24,62.49h42l-31,12s-.47,13.88,14.93,17.92c11.84,3.11,24.5-4.66,29.73-8.42,1.57-1.13,2.83-2.66,3.66-4.41Z" class="cls-11"/>
          <path d="M961,296h24s-4.44,9.35-24,9v-9Z" class="cls-3"/>
          <path d="M937.52,250c.05,1.47,1.35,2.64,2.88,2.61,1.54-.03,2.74-1.24,2.69-2.71-.05-1.47-1.35-2.64-2.88-2.61-1.54.03-2.74,1.24-2.69,2.72Z" class="cls-10"/>
          <path d="M936.63,242.73c.37.34,2.36-1.37,5.36-1.58,2.99-.25,5.29,1.13,5.59.74.15-.17-.25-.8-1.26-1.43-.99-.63-2.65-1.18-4.51-1.04-1.86.15-3.38.94-4.23,1.71-.87.77-1.13,1.45-.95,1.6Z" class="cls-10"/>
          <path d="M964.93,248.22c.05,1.47,1.35,2.64,2.88,2.61,1.54-.03,2.74-1.24,2.69-2.71-.05-1.47-1.35-2.64-2.88-2.61-1.54.03-2.74,1.24-2.69,2.72Z" class="cls-10"/>
          <path d="M966.09,241.16c.37.34,2.37-1.37,5.36-1.58,2.99-.25,5.29,1.13,5.59.74.15-.17-.25-.8-1.26-1.43-.99-.63-2.64-1.18-4.51-1.04-1.86.14-3.38.94-4.23,1.71-.87.77-1.13,1.45-.95,1.6Z" class="cls-10"/>
          <path d="M965.79,265.57c-.49,0-.26,3.26-2.87,5.76-2.61,2.51-6.1,2.4-6.09,2.85-.03.21.82.58,2.28.51,1.44-.05,3.5-.67,5.1-2.2,1.59-1.54,2.19-3.48,2.2-4.82.03-1.37-.39-2.15-.62-2.11Z" class="cls-10"/>
          <path d="M932.99,224.44s4.25-12.57,9.93-15.84c6.87-3.96,10.5,3.63,17.15,1.25,6.65-2.39,13.2-6.18,20.51-1.44,8,5.19,4.74,9.48,5.83,18.08,4.43,34.89,11.54,44.33,12.17,27.7.07-1.82,4.98-3.62,5.17-11.31.25-9.97-.24-22.02-2.96-28.89-2.29-5.79-5.96-9.64-12.35-13.71-10.08-6.43-23.22-5.64-32.07-4.09-8.85,1.54-25.31,13.05-23.39,28.26Z" class="cls-33"/>
          <path d="M997.3,253.76c-.09-3.01,2.32-5.57,5.34-5.51,3.66.08,7.85,1.85,8.15,9.37.54,13.34-12.97,11.13-13.01,10.75-.03-.26-.3-9.03-.48-14.62Z" class="cls-19"/>
          <path d="M1005.04,252.73c-.05.05-.26-.11-.69-.2-.41-.09-1.08-.06-1.7.35-1.26.82-1.92,3.27-1.45,5.63.24,1.19.74,2.26,1.37,3.1.61.86,1.38,1.39,2.1,1.35.73,0,1.12-.52,1.2-.93.09-.4-.05-.64.01-.68.03-.04.33.15.35.72,0,.27-.08.61-.33.93-.25.33-.68.56-1.18.62-1.02.16-2.13-.56-2.83-1.48-.75-.91-1.35-2.11-1.61-3.45-.51-2.64.27-5.4,2.03-6.38.86-.45,1.69-.35,2.15-.13.48.23.61.51.57.54Z" class="cls-3"/>
        </g>
        <path d="M995.18,227.98c-1.64,1.31-3.38,2.65-5.45,3.01-2.07.36-4.54-.67-5.04-2.71-.22-.92-.08-2.01-.74-2.68-.79-.8-2.11-.44-3.22-.24-3.84.69-8-1.76-9.26-5.45-.88,1.55-3.19,1.65-4.75.8-1.56-.86-2.64-2.36-3.9-3.62-1.27-1.25-2.99-2.33-4.73-1.96-.97.21-1.85.86-2.85.85-1.76-.03-2.76-2.01-3.15-3.73-.39-1.72-.74-3.73-2.29-4.56-1.43-.77-3.18-.14-4.77.21-1.59.35-3.7.13-4.22-1.42-.28-.81.02-1.7.42-2.46,1.84-3.41,6.25-5.19,9.94-4,.98-4.49,4.85-8.21,9.38-9.02,4.53-.81,9.45,1.34,11.93,5.21,2.63-2.76,6.64-4.12,10.41-3.55,3.76.58,7.18,3.08,8.86,6.5,3.18-1.09,6.96-.1,9.2,2.4,2.24,2.5,2.82,6.36,1.39,9.41,2.49,1.19,4.71,3.42,4.96,6.18.25,2.75-2.24,5.69-4.95,5.16,1.23,2.07.57,5.04-1.43,6.39-1.99,1.35-5,.86-6.46-1.05" class="cls-33"/>
        <path d="M950.46,204.02s0,.08.02.24c.03.16.06.4.14.7.17.61.48,1.5,1.15,2.5.67.98,1.69,2.1,3.18,2.93,1.46.85,3.42,1.43,5.57,1.16l-.25-.28c-.33,1.17-.12,2.53.53,3.66.62,1.15,1.55,2.15,2.51,3.11.49.46.93,1.01,1.6,1.42.65.39,1.4.59,2.17.63,1.51.08,3.18-.5,4.17-1.84l-.51-.11c.53,2.62,2.23,5.16,4.73,6.6,1.33.82,2.94,1.27,4.48,1.12,1.54-.13,2.94-.68,4.24-1.26l-.37-.13c.84,1.6,2.04,2.94,3.45,3.88,1.39.95,3.18,1.43,4.73.93,3.09-.89,4.99-3.66,5.23-6.15l-.29.16c1.62.74,3.3.7,4.62.34,1.34-.35,2.37-1.02,3.09-1.65.72-.65,1.13-1.29,1.37-1.73.22-.46.3-.71.29-.71-.07-.05-.37,1.04-1.81,2.28-.72.59-1.72,1.21-3.02,1.51-1.28.31-2.87.31-4.37-.4l-.26-.12-.03.29c-.26,2.33-2.09,4.91-4.96,5.7-1.41.44-2.98,0-4.3-.89-1.32-.89-2.47-2.18-3.24-3.69l-.12-.24-.24.11c-1.28.56-2.63,1.09-4.06,1.2-1.42.13-2.86-.26-4.13-1.04-2.37-1.36-3.96-3.74-4.47-6.22l-.13-.62-.38.52c-.84,1.15-2.32,1.7-3.69,1.63-.68-.03-1.35-.21-1.92-.54-.55-.32-1.01-.87-1.51-1.33-.97-.95-1.86-1.9-2.45-2.97-.62-1.06-.81-2.25-.53-3.31l.09-.33-.33.05c-2.02.28-3.9-.24-5.33-1.03-1.45-.78-2.46-1.83-3.15-2.77-1.36-1.93-1.42-3.34-1.51-3.3Z" class="cls-6"/>
      </g>
      <path d="M950.19,251.88c-.08-.02.35-1.12.45-3.2.09-2.04-.32-5.21-2.5-8.24-1.09-1.48-2.59-2.92-4.53-3.9-1.93-.97-4.24-1.6-6.67-1.44-1.21.05-2.45.3-3.65.73-1.2.41-2.37,1.03-3.42,1.83-2.14,1.56-3.79,3.9-4.64,6.57-.8,2.69-.74,5.55.16,8.04.42,1.25,1.04,2.41,1.81,3.43.75,1.03,1.63,1.93,2.61,2.65,1.92,1.5,4.2,2.27,6.33,2.55,2.16.27,4.2-.08,5.94-.7,3.51-1.28,5.62-3.67,6.69-5.42,1.08-1.78,1.35-2.93,1.42-2.9.02,0-.06.28-.24.81-.08.27-.19.59-.37.95-.17.37-.35.8-.64,1.25-1.03,1.8-3.15,4.3-6.74,5.66-1.77.66-3.88,1.04-6.11.78-2.21-.27-4.57-1.05-6.57-2.6-1.02-.74-1.94-1.67-2.72-2.74-.8-1.05-1.45-2.26-1.89-3.56-.94-2.59-1.01-5.57-.18-8.36.88-2.78,2.61-5.21,4.84-6.82,1.09-.83,2.31-1.46,3.56-1.89,1.24-.44,2.53-.7,3.79-.74,2.53-.15,4.92.52,6.9,1.54,1.99,1.03,3.53,2.53,4.63,4.07,2.21,3.14,2.56,6.39,2.41,8.46-.01.53-.1.99-.17,1.39-.05.4-.14.73-.22,1-.15.53-.24.81-.26.8Z" class="cls-10"/>
      <path d="M984.51,249.31c-.08-.02.35-1.12.45-3.2.09-2.04-.32-5.21-2.5-8.24-1.09-1.48-2.59-2.92-4.53-3.9-1.93-.97-4.24-1.6-6.67-1.44-1.21.05-2.45.3-3.65.73-1.2.41-2.37,1.03-3.42,1.83-2.14,1.56-3.79,3.9-4.64,6.57-.8,2.69-.74,5.55.16,8.04.42,1.25,1.04,2.41,1.81,3.43.75,1.03,1.63,1.93,2.61,2.65,1.92,1.5,4.2,2.27,6.33,2.55,2.16.27,4.2-.08,5.94-.7,3.51-1.28,5.62-3.67,6.69-5.42,1.08-1.78,1.35-2.93,1.42-2.9.02,0-.06.28-.24.81-.08.27-.19.59-.37.95-.17.37-.35.8-.64,1.25-1.03,1.8-3.15,4.3-6.74,5.66-1.77.66-3.88,1.04-6.11.78-2.21-.27-4.57-1.05-6.57-2.6-1.02-.74-1.94-1.67-2.72-2.74-.8-1.05-1.45-2.26-1.89-3.56-.94-2.59-1.01-5.57-.18-8.36.88-2.78,2.61-5.21,4.84-6.82,1.09-.83,2.31-1.46,3.56-1.89,1.24-.44,2.53-.7,3.79-.74,2.53-.15,4.92.52,6.9,1.54,1.99,1.03,3.53,2.53,4.63,4.07,2.21,3.14,2.56,6.39,2.41,8.46-.01.53-.1.99-.17,1.39-.05.4-.14.73-.22,1-.15.53-.24.81-.26.8Z" class="cls-10"/>
      <path d="M958.52,244.34c-.06.15-1.8-.85-4.15-.63-2.35.17-3.9,1.44-3.99,1.31-.04-.04.28-.43.96-.86.68-.43,1.74-.86,2.98-.96,1.24-.1,2.36.15,3.09.46.74.31,1.13.64,1.09.69Z" class="cls-10"/>
      <path d="M998.04,250.11c-.05.14-2.97-.79-6.53-2.06-3.56-1.27-6.4-2.42-6.35-2.55.05-.14,2.97.79,6.53,2.06,3.56,1.27,6.4,2.42,6.35,2.55Z" class="cls-10"/>
      <path d="M371.74,170.22l-44.6.43c-5.36.05-9.72,3.4-9.68,7.44l.29,29.64c.04,4.04,4.46,7.3,9.82,7.25l5.94-.06c-.31,3.11-1.69,6.15-3.95,8.6,4.1-.6,8.3-1.22,11.91-3.02,2.6-1.29,4.83-3.34,5.86-5.72l24.83-.24c5.36-.05,9.72-3.4,9.68-7.43l-.29-29.64c-.04-4.04-4.46-7.3-9.82-7.25Z" class="cls-35"/>
      <path d="M338.38,192.69c.03,2.76-2.42,5.03-5.47,5.06-3.04.03-5.53-2.19-5.56-4.95-.03-2.76,2.42-5.03,5.46-5.06,3.04-.03,5.54,2.19,5.56,4.95Z" class="cls-22"/>
      <path d="M355.32,192.53c.03,2.76-2.42,5.03-5.47,5.06-3.04.03-5.54-2.19-5.56-4.95-.03-2.76,2.42-5.03,5.47-5.06,3.04-.03,5.54,2.19,5.56,4.95Z" class="cls-22"/>
      <path d="M372.25,192.36c.03,2.76-2.42,5.03-5.47,5.06-3.04.03-5.54-2.19-5.56-4.95-.03-2.76,2.42-5.03,5.46-5.06,3.04-.03,5.54,2.19,5.56,4.95Z" class="cls-22"/>
      <path d="M763.42,187.71c13.41-1.24,25.23,7.97,26.39,20.56.32,3.47-.2,6.83-1.4,9.9l8.33,9.51-13.73-1.39c-3.94,3.86-9.3,6.47-15.37,7.03-13.41,1.24-25.23-7.97-26.39-20.56-1.16-12.59,8.77-23.81,22.18-25.05Z" class="cls-37"/>
      <path d="M752.88,209.57c-.1-3.79,2.89-6.94,6.68-7.04,2.25-.06,4.27.97,5.56,2.61,1.21-1.7,3.17-2.84,5.42-2.9,3.79-.1,6.94,2.89,7.04,6.68.13,4.91-6.89,9.57-10.23,12.78-.74.72-1.91.76-2.7.1-3.82-3.15-11.62-6.55-11.77-12.23Z" class="cls-22"/>
      <path d="M879.78,300.29c-3.57-12.86-8.82-25.26-15.56-36.77l-1.47-8.04c1-6.85,7.5-12.09,14.37-12.91,6.87-.81,13.8,2.19,18.98,6.78,5.18,4.59,8.83,10.65,11.94,16.83,2.03,4.03,4.57,8.69,9.04,9.28,1.58.21,3.22-.16,4.77.23,2.87.71,4.62,4.05,4.03,6.95-.6,2.9-3.13,5.15-5.98,5.95,3.27,2.97,3.52,8.65.54,11.9-2.99,3.25-8.67,3.48-11.9.47.9,3.12-.58,6.59-3.04,8.72-2.46,2.13-5.73,3.09-8.96,3.47-4.33.51-9.12-.08-12.24-3.13-2.59-2.53-3.54-6.25-4.51-9.74Z" class="cls-27"/>
      <g>
        <g>
          <g>
            <path d="M876.91,244.27c-2.11-1.36-4.35-2.64-6.81-3.14-2.46-.5-5.22-.13-7.13,1.5-1.91,1.63-2.67,4.68-1.29,6.78l.17-1.82c.92,6.09,4.41,11.74,9.44,15.29,3.41,2.41,8.18,3.79,11.7,1.55,3.54-2.26,4.26-7.42,2.58-11.27-1.67-3.85-5.13-6.6-8.66-8.88Z" class="cls-4"/>
            <path d="M879.3,256.37c.03.13,1.82-.51,3.29-2.24.73-.85,1.22-1.75,1.47-2.44.29-.72.04-1.25-.03-1.19-.06.02.03.45-.31,1.05-.32.61-.83,1.45-1.52,2.25-1.38,1.63-2.98,2.44-2.9,2.58Z" class="cls-10"/>
            <path d="M872.64,252.8c.11.09,1.59-1.41,3.32-3.35,1.73-1.95,3.05-3.6,2.94-3.69-.11-.09-1.59,1.41-3.32,3.35-1.73,1.94-3.05,3.6-2.94,3.69Z" class="cls-10"/>
            <path d="M868.06,246.29c.14.1.97-1.09,2.04-2.43.54-.66,1.11-1.18,1.57-1.49.46-.31.79-.45.76-.53-.01-.06-.39-.04-.94.22-.55.25-1.22.77-1.79,1.47-1.12,1.42-1.73,2.69-1.64,2.76Z" class="cls-10"/>
          </g>
          <g>
            <g>
              <path d="M881.61,257.53c.12-4.12-3.69-7.31-7.53-8.82-3.84-1.51-8.1-2.08-11.52-4.38-3.03-2.04-5.06-5.22-7.63-7.82-6.29-6.38-16.11-9.02-24.75-6.66-8.64,2.36-15.76,9.62-17.94,18.31-1.47,5.87-.47,12.81,4.16,16.71,5.37,4.53,13.33,3.52,20.21,2.11,6.88-1.41,14.67-2.8,20.41,1.24,3.46,2.44,5.45,6.4,7.57,10.07,2.12,3.67,4.78,7.41,8.78,8.79,4.01,1.38,9.44-1,9.6-5.24" class="cls-27"/>
              <path d="M878.33,260.79c-.45,3.45,2.05,6.55,4.54,8.99,2.49,2.44,5.3,5.03,5.74,8.48.51,4.04-2.43,8.01-1.58,11.99.54,2.53,2.51,4.47,3.7,6.76,1.67,3.22-8.7-4.49-9.73-1.02-1.03,3.48-1.58,18.3-4,21-6.69,7.48-7.95,18.49-17.73,20.74-9.78,2.25-30.49,11.66-29.94,1.64.67-12.38,4.5-14.1-2.33-25.38-3.54-5.84-12.12-6.44-14-13-1.62-5.65-3.68-.37-2-6,.98-3.28-2.1-7.15-4-10-4-6-3.49-13.75-3-18,1.05-9.2,4.31-16.52,12.41-21.02,8.1-4.5,18.38-4.82,26.75-.84" class="cls-27"/>
            </g>
            <g>
              <path d="M808.46,273.95c.77-11.76,8.59-26.18,20.31-24.91l36.58,9.33c3.56.38,6.23,3.43,6.16,7.01l-4.02,86.3c-.07,1.47-.41,2.91-1.02,4.25-2.72,5.99-11.74,21.21-31.35,15.05-4.8-1.51-6.99-6.75-7.94-12.15,0-.64-.27-1.21-.27-1.82-.8-6.23,2.08-24.01,2.08-24.01,7-3,15-7,21-9,0,0-31,4-38,0-8.57-4.9-4.39-36.98-3.54-50.05Z" class="cls-32"/>
              <g>
                <g>
                  <path d="M813.67,288.16c-.05,1.33,1.03,2.47,2.42,2.54,1.38.08,2.55-.93,2.6-2.26.05-1.33-1.03-2.47-2.42-2.54-1.39-.08-2.55.93-2.6,2.26Z" class="cls-10"/>
                  <path d="M839.58,288.16c-.05,1.33,1.03,2.47,2.42,2.54,1.38.08,2.55-.93,2.6-2.26.05-1.33-1.03-2.47-2.42-2.54-1.39-.08-2.55.94-2.6,2.26Z" class="cls-10"/>
                  <path d="M836.61,304.78c-.44-.03-.45,2.91-2.97,4.99-2.51,2.09-5.65,1.75-5.67,2.16-.04.18.7.57,2.02.61,1.3.05,3.19-.36,4.73-1.64,1.54-1.28,2.2-2.98,2.3-4.18.11-1.23-.21-1.96-.41-1.94Z" class="cls-10"/>
                </g>
                <path d="M837.52,276.29c.26.74,2.97.39,6.14.78,3.18.33,5.74,1.26,6.16.6.19-.31-.26-1.01-1.29-1.72-1.02-.71-2.66-1.39-4.57-1.61-1.91-.21-3.65.09-4.81.55-1.17.47-1.75,1.04-1.64,1.39Z" class="cls-10"/>
                <path d="M812.93,274.45c.47.62,2.34-.02,4.58-.04,2.24-.1,4.14.42,4.58-.22.19-.31-.11-.93-.93-1.51-.82-.58-2.18-1.06-3.72-1.02-1.54.05-2.88.6-3.66,1.23-.79.63-1.06,1.26-.85,1.56Z" class="cls-10"/>
              </g>
            </g>
          </g>
        </g>
        <path d="M816.3,245.79c-2.27,10.62,4.11,22.41,14.23,26.33.24-2.44.48-4.88.71-7.32,3.01,5.54,9.8,7.55,15.84,9.38,6.04,1.83,12.76,4.78,14.51,10.84,1.35,4.69-.81,9.77.16,14.55.53,2.6,1.95,4.93,2.64,7.49,1.01,3.75,1.82,10.23,4.6,12.94,5.5,5.36,1.13-6.7,5-7,2.46-.19.98-5.76,2-8,1.02-2.24.84-9.54,1-12,.66-10.03,4,1.49,3.66-8.56-.3-8.72-1.4-17.92-6.71-24.83-5.83-7.58-15.6-10.92-24.99-12.7-9.39-1.78-19.16-2.45-27.88-6.37" class="cls-27"/>
      </g>
      <path d="M694.09,318.73c-.04.08-1.39-.59-3.45-1.9-2.06-1.3-4.79-3.27-7.6-5.7-2.81-2.43-5.17-4.83-6.8-6.63-1.63-1.8-2.56-2.99-2.49-3.05.08-.07,1.13,1,2.85,2.7,1.72,1.7,4.12,4.03,6.9,6.44,2.79,2.41,5.45,4.42,7.42,5.82,1.97,1.4,3.22,2.22,3.17,2.31Z" class="cls-39"/>
      <path d="M689.25,323.46c-.06.07-1.22-.78-3.04-2.22-1.81-1.45-4.29-3.49-6.92-5.87-2.63-2.38-4.89-4.68-6.44-6.41-1.55-1.73-2.42-2.88-2.35-2.94.08-.07,1.08.96,2.72,2.6,1.64,1.64,3.93,3.86,6.55,6.23,2.55,2.26,4.85,4.31,6.77,6.01,1.73,1.54,2.78,2.53,2.71,2.61Z" class="cls-39"/>
      <path d="M683.56,327.65c-.05.07-1.17-.53-2.85-1.74-1.68-1.2-3.87-3.04-6.07-5.29-2.2-2.25-4-4.46-5.23-6.11-1.23-1.65-1.9-2.73-1.83-2.79.18-.14,3.22,3.94,7.57,8.4,2.18,2.23,4.29,4.1,5.87,5.39,1.58,1.29,2.6,2.05,2.54,2.14Z" class="cls-39"/>
      <g>
        <path d="M882.39,397.46l-19.74,97.61s20.17,45.65,17.81,63.61c-1.37,10.41-12.59,29.55-12.59,29.55l-98.78-36.44s9.54-112.34,15.85-133.51c8.9-29.87,36.42-64.58,36.42-64.58h0l.54-10.16,50.13.72-.3,10.25s16.34,18.51,10.67,42.95Z" class="cls-4"/>
        <path d="M851.68,451.29s0,.17.02.5c.04.43.09.9.13,1.42.12,1.23.34,3,.66,5.19.63,4.37,1.75,10.38,3.46,16.91,1.72,6.52,3.7,12.31,5.3,16.43.8,2.06,1.48,3.71,1.98,4.84.21.47.4.9.58,1.3.14.3.21.45.23.44.01,0-.04-.17-.15-.47-.16-.41-.33-.84-.51-1.33-.46-1.15-1.1-2.81-1.86-4.88-1.53-4.14-3.47-9.92-5.19-16.43-1.71-6.51-2.86-12.5-3.56-16.85-.35-2.18-.61-3.94-.78-5.17-.08-.51-.14-.98-.21-1.41-.05-.32-.08-.49-.1-.49Z" class="cls-10"/>
        <path d="M856.7,584.77c.1.04,1.6-3.37,3.36-7.61,1.76-4.25,3.11-7.72,3.01-7.76s-1.6,3.37-3.36,7.62c-1.76,4.25-3.11,7.72-3.01,7.76Z" class="cls-10"/>
        <path d="M841.4,578.98c.1.04,1.48-3.24,3.08-7.33,1.6-4.09,2.82-7.44,2.72-7.47-.1-.04-1.48,3.24-3.08,7.33-1.6,4.09-2.82,7.43-2.72,7.47Z" class="cls-10"/>
        <path d="M823.54,573.04s.16-.2.38-.59c.22-.39.52-.97.88-1.7.71-1.45,1.6-3.5,2.43-5.82.82-2.33,1.42-4.48,1.78-6.05.18-.79.31-1.43.39-1.87.08-.45.11-.69.08-.7-.06-.01-.3.95-.73,2.5-.43,1.55-1.06,3.68-1.88,5.99-.82,2.31-1.67,4.36-2.31,5.84-.64,1.48-1.06,2.38-1.01,2.41Z" class="cls-10"/>
        <path d="M808.13,567.14c.1.03,1.5-3.84,3.13-8.64,1.63-4.81,2.87-8.73,2.77-8.77-.1-.03-1.5,3.84-3.13,8.65-1.63,4.81-2.87,8.73-2.77,8.77Z" class="cls-10"/>
        <path d="M789.05,559.74c.1.04,1.34-3.1,2.76-7.01,1.43-3.91,2.5-7.11,2.4-7.15-.1-.04-1.34,3.1-2.76,7.01-1.43,3.91-2.5,7.11-2.4,7.14Z" class="cls-10"/>
      </g>
      <g>
        <g>
          <path d="M813.34,390.73c2.79-5.59,5.07-4.64,14.79-8.88,9.73-4.24,28.33,10.11,28.33,10.11l8.43,26.09-17.56,80.81s-2.14,17.78-29.1,24.14c-9.89,2.33-75.83,19.16-75.83,19.16l-7.39-29.03,67.38-29.36,10.94-93.04Z" class="cls-4"/>
          <g class="cls-30">
            <path d="M852.85,473.34c3.83-23.72,7.54-46.67,11.37-70.4.14-.89.31-1.82.9-2.5,1.11-1.27,3.31-.97,4.52.2,1.21,1.18,1.65,2.93,1.88,4.6,1.23,8.67-1.5,17.35-4.2,25.68-4.61,14.22-11.04,34.45-15.64,48.67l1.17-6.25Z"/>
          </g>
        </g>
        <path d="M833.5,516.96s.35-.18,1.01-.55c.67-.34,1.61-.94,2.77-1.78,2.29-1.68,5.41-4.6,7.82-9.15,1.22-2.25,2.17-4.95,2.71-7.91.67-2.92,1.35-6.06,2.05-9.36,1.38-6.61,2.77-13.9,4.12-21.58,2.58-15.32,4.92-29.17,6.63-39.35.89-4.93,1.62-8.97,2.15-11.9.24-1.32.44-2.39.6-3.23.13-.74.18-1.13.18-1.13,0,0-.1.38-.26,1.12-.17.84-.39,1.9-.67,3.22-.57,2.8-1.35,6.86-2.27,11.88-1.86,10.04-4.07,23.98-6.74,39.33-1.35,7.67-2.72,14.96-4.09,21.57-.69,3.3-1.36,6.44-2.02,9.37-.53,2.96-1.44,5.59-2.64,7.85-2.35,4.53-5.42,7.45-7.67,9.16-1.14.85-2.06,1.47-2.72,1.83-.64.39-.97.61-.97.61Z" class="cls-10"/>
        <path d="M853.17,388.89s-.11-.09-.34-.24c-.32-.19-.65-.39-1.01-.61-.89-.52-2.18-1.26-3.81-2.11-3.25-1.66-7.97-3.88-13.62-4.44-5.67-.53-10.79,1.32-13.69,3.6-1.47,1.13-2.46,2.28-3.03,3.14-.57.86-.8,1.39-.8,1.39.1.09,1.03-2.13,3.99-4.31,2.89-2.18,7.93-3.96,13.49-3.44,5.57.54,10.26,2.7,13.53,4.3,1.64.81,2.95,1.51,3.86,1.99.37.2.72.38,1.05.55.24.12.37.18.38.17Z" class="cls-10"/>
        <path d="M829.06,493.56s-.38-.13-1.08-.3c-.93-.23-1.91-.48-2.97-.75-2.5-.66-5.92-1.68-9.61-3.09-3.68-1.41-6.91-2.94-9.21-4.12-.97-.51-1.87-.98-2.71-1.42-.64-.34-1-.52-1.01-.5-.01.02.32.25.94.63.61.39,1.52.91,2.66,1.53,2.27,1.25,5.5,2.82,9.2,4.24,3.7,1.41,7.15,2.4,9.68,2.99,1.26.3,2.29.51,3,.63.71.13,1.11.18,1.12.16Z" class="cls-10"/>
      </g>
      <path d="M829.5,325.54l20.5-1.54s-4,4-21.14,9.52l.64-7.98Z" class="cls-16"/>
      <path d="M465.87,370.53c4.68-.29,9.35-.66,14.03-.83,1.76-.06,2.86-.99,4.02-2.06,8.07-7.39,16.16-14.76,24.25-22.13,1.07-.98,2.04-2.7,3.74-.8,5.22,5.34,10.32,10.8,16,15.67.52,1.57,3.57,2.1,1.47,4.78-10.18,13-19.84,26.4-30.98,38.63-2.01,2.21-4.32,3.65-7.25,4.36-12.72,3.06-25.39,6.28-38.12,9.3-2.19.52-4.88.99-6.97,1.92-3.62,1.62-2.56,8.21-2.28,10.19,1.16,8.2,5.31,61.34,3.91,69.94h-64.18l-12.61-1.19s-2.74-.26-7.28-1.48c-9.25-18.12-28.37-33.84-31.62-53.83-.33-2.03,5-54,12-64,4.85-6.93,16.77-9.08,24.99-11.19,4.63-1.19,7.12-3.48,7.6-8.22.19-1.89.65-4.01,3.46-3.64,10.51,0,21.02,0,31.53,0,2.08-.12,2.75,1.03,2.54,2.9-.53,4.79,1.65,6.98,6.41,7.65,4.11.58,8.22,1.68,12.11,3.12,11.02,4.09,22.12,1.9,33.23.91Z" class="cls-2"/>
      <path d="M720.34,458.08c-.43,3.67.24,25,.24,25,0,0-10.86,5.24-24.13,4.56-3.3-.17-18.93-2.15-22.05-1.93-6.63.47-8.45.35-11.79-.1s-12.85.41-18.11-.02c-10.03-.82-7.64-.37-21.3-2.46-6.86-1.05-10.16-.69-16.18-2.25-7.39-1.92-6.28,1.59-11.7-3.9,2.2-17.04,6.25-46.45,9.31-63.37.14-.76.24-1.57-.9-2.2-1.12,6.05-2.21,11.99-3.31,17.92-.49-.16-1.08-.19-1.45-.5-12.38-10.17-25.23-19.8-36.41-31.39-2.36-2.45-3.95-5.06-4.65-8.38-2.28-10.81-3.72-21.76-5.49-32.66-.35-2.15-1.41-4.39,1.62-5.5,9.49-2.28,18.55-5.87,27.8-8.92,3.25-1.37,4.73.11,6.06,3.08,3.99,8.95,8.34,17.74,12.47,26.62.95,2.03,2.03,3.22,4.56,3.55,3.98.52,7.85,1.81,11.78,2.74,9.37,2.21,18.75,4.4,28.13,6.6.41,3.03,2.4,4.77,4.94,6.08,7.82,4.01,15.8,3.39,23.85.84,9.59,3.86,18.38,9.18,26.8,15.09,5.82,4.08,9.49,9.54,12.93,16.12,1.02,1.95,1.76,2.58,2.7,4.97,1.78,7.44,3.89,21.08,4.31,29.01.02.32.02,1.06-.02,1.38Z" class="cls-26"/>
      <path d="M629.72,317.3c-3.63-1.58-7.02-3.4-9.04-7.11-4.96-9.14.29-18.53,10.99-19.15,2.68-.15,3.41-.75,3.53-3.5.33-7.72,5.5-10.76,12.64-7.62,10.38,4.57,19.33,11.42,28.45,18,1.15.83,2.32,1.63,3.44,2.41,1.49-.87,1.06-2.24,1.31-3.26,3.85-15.58,19.13-23.32,33.86-17.1.72.3,1.46.55,2.19.83,11.84,7.73,16.56,18.52,9.82,31.95-2.62,4.28-5.63,8.19-10.21,10.58-1.32.69-1.44,1.47-.8,2.83,1.92,4.07,1.21,8.19-.26,12.21-3.75,10.19-9.64,19.09-16.65,27.29-.45-3.54.81-7.51-2.56-10.32l.03.04c-1.73-4.31-5.21-5.37-9.32-2.83-4.47,2.76-4.75,2.7-7.88-1.69-2.27-3.18-3.76-6.61-3.36-10.61.17-1.67-.33-2.96-1.24-4.36-3.84-5.88-5.23-12.15-2.85-19.04.45-1.3,1.45-2.75.71-4.42-3.64,1.33-6.84,3.75-10.96,2.17-3.94-1.51-5.35-5.05-7.29-8.59-6.69,7.34-13.7,13.6-24.52,11.29Z" class="cls-8"/>
      <path d="M359,271c1-2,3.64-3.77,4-4,.87-.56,6.02-2.68,7-3,9.95-3.26,11.39-1.25,21.51-2,14.85-1.1,29.73-2.19,44.65-1.09,1.82.13,3.64.34,5.43.7,7.34,1.49,9.45,5.31,5.72,11.74-2.12,3.66-1.46,4.82,2.08,6.64,7.83,4.03,8.7,11.36,2.51,17.66-1.92,1.96-3.94,3.83-6.45,5.05-.22-1.56-.42-3.11-.65-4.67-2.28-15.96-11.01-26.73-26.03-32.54-2.75-1.07-3.42-.33-3.26,2.42.28,4.61-.57,9.14-1.56,13.61-1.21,5.41-4.29,9.64-9.89,10.44-3.77.54-4.4,2.46-5.07,5.41-1.7,7.55-3.72,9.32-11,9.8-1.65.11-2.26.58-2.5,2.18-.48,3.16-1.18,6.29-1.92,10.07-1.64-2.33-2.77-4.21-4.16-5.86-4.48-5.34-11.55-5.26-15.78.09l.03-.03c-1.27.42-1.28,1.89-2.17,2.62-.32-2.46-.73-4.92-.96-7.39-1.13-11.87-3.78-16.04-2.52-24.87,0-.01,0-6.03,0-7" class="cls-12"/>
      <path d="M594.21,479.09c.76-12.01,4.91-37.81,6.22-49.76,1.1-5.94,2.19-11.88,3.31-17.92,1.14.63,1.04,1.44.9,2.2-3.07,16.92-7.12,46.33-9.31,63.37-.37.16-.76,1.95-1.12,2.11Z" class="cls-17"/>
      <path d="M698.98,365.66c-.36,1.24-.73,2.47-1.09,3.71-3.63,4.86-8.34,7.2-14.51,6.51-2.22-.25-7.76,4.54-8.18,6.81-.54,2.93-1.05,5.87-1.57,8.81-8.05,2.55-16.03,3.17-23.85-.84-2.54-1.3-4.53-3.04-4.94-6.08.26-.85.51-1.7.76-2.54h19.78c-6.22-1.33-12.51-3.21-19.08-3.87-1-.29-1.99-.63-3-.86-5.98-1.32-12.08-2.27-17.71-4.84-3-1.37-5.99-3.01-6.26-6.86-.53-7.6-.31-8.61-.31-10.61,0-5.1,1.46-9.58,2-12,1.77-7.93,4.3-16.12,7.23-23.68.5-.67.99-1.35,1.49-2.02,10.82,2.31,17.83-3.94,24.52-11.29,1.95,3.54,3.36,7.09,7.29,8.59,4.13,1.58,7.32-.84,10.96-2.17.74,1.67-.26,3.12-.71,4.42-2.38,6.9-.98,13.16,2.85,19.04.91,1.4,1.41,2.69,1.24,4.36-.4,4,1.1,7.43,3.36,10.61,3.14,4.39,3.41,4.45,7.88,1.69,4.11-2.54,7.6-1.48,9.32,2.83-7.09-1.86-14.65,5.32-16.08,13.01,1.6-.34,1.67-1.87,2.29-2.91,2.84-4.74,5.97-9.02,12.37-8.66,1.04.06,1.31-.62,1.38-1.47,3.37,2.82,2.11,6.78,2.56,10.32ZM662.76,351.43c-6.47-.04-11.77,5.1-11.9,11.54-.12,6.15,5.46,11.91,11.6,11.98,6.15.07,11.86-5.54,11.89-11.68.03-6.42-5.24-11.8-11.59-11.84ZM656.88,342.91c-2.02.54-2.97,1.92-2.92,4.02.05,2.05,1.06,3.28,3.18,2.99,2.25-.3,2.99-2.07,2.82-4.01-.14-1.64-1.09-2.94-3.09-2.99ZM634.36,341.15c.02-2.09-.75-3.68-2.75-3.68-2.14,0-3.11,1.79-3.2,3.7-.07,1.61.63,3.16,2.59,3.23,2.24.08,3.12-1.41,3.36-3.24ZM638.44,351.09c-.73,4.6.95,7.66,3.79,7.95,2.61.27,5.56-2.73,5.64-5.73-4.96,5.09-6.61,6.17-9.43-2.22ZM663.58,340.38c-.76-2.92-2.49-4.5-6.28-4.5,2.55,1.83,4.42,3.16,6.28,4.5ZM629.82,331.37c2.11-.51,4.31-.27,6.5-.53-2.15-1.88-4.31-1.78-6.5.53Z" class="cls-36"/>
      <path d="M578.52,324.68c1.11,5.77,2.21,11.54,3.32,17.31-9.24,3.05-18.31,6.63-27.79,8.92-1.18-4.6-1.49-9.4-3.12-13.89,4.18-3.8,5.78-8.93,7.03-14.15,1.85-7.75,4.23-15.34,6.66-22.91.45-1.4.93-2.72,2.36-3.42,2.07-1.01,3.41-2.73,4.71-4.58,1.8-2.58,4.02-4.82,6.48-6.78,1.1-.88,2.53-2.14,3.82-1.13,1.4,1.1.16,2.64-.42,3.89-2.48,5.32-5.15,10.57-6.39,16.37-.26,1.19-1.21,2.56.69,3.3.31,5.78,1.26,11.46,2.65,17.08Z" class="cls-36"/>
      <path d="M570.54,263.33c.26-.27.28-1.01.46-1.33.92-1.59,1.32-4.15,3.54-3.61,1.55.38,1.23,3.39,1.36,5.3.48,7.21-.63,14.37-.59,21.57-3.2,2.9-4.86,7.28-8.78,9.64-1.25-1.84.46-4.35-1.8-5.19-1.61-.59-2.33,1.39-3.57,2.01.3-2.45.59-4.91.89-7.36,2.95-.83,6.18-.3,9.5-2-2.31-.87-2.28-2.35-2.08-4.27.34-3.33.14-6.72.17-10.08.09-.73.18-1.45.27-2.18q.09-1.83.65-2.55l-.02.04Z" class="cls-36"/>
      <path d="M561.17,291.72c1.24-.62,1.96-2.6,3.57-2.01,2.26.83.55,3.35,1.8,5.19,3.92-2.36,5.58-6.74,8.78-9.64,1.53-.96,2.98-2.1,4.62-2.83,1.22-.55,2.76-1.26,3.99.06,1.06,1.13.54,2.5.05,3.68-1.42,3.34-2.94,6.64-4.42,9.96-1.64,3.69-2.83,7.52-3.68,11.47-1.91-.75-.95-2.11-.7-3.3,1.25-5.8,3.91-11.05,6.39-16.37.58-1.25,1.82-2.79.42-3.89-1.3-1.01-2.72.25-3.82,1.13-2.46,1.96-4.68,4.2-6.48,6.78-1.3,1.85-2.63,3.58-4.71,4.58-1.43.7-1.91,2.01-2.36,3.42-2.43,7.58-4.81,15.16-6.66,22.91-1.24,5.22-2.84,10.35-7.03,14.15-2.98,1.29-4.96,4.31-8.38,4.83.12-1.78,1.69-2.29,2.86-2.93,5.78-3.18,9.02-8.13,10.46-14.42,2.15-9.43,5.26-18.57,7.96-27.84.45-1.55.89-3.12.23-5.27-4.92,4.93-6.38,11.37-10.3,16.3,1.48-5.79,4.42-10.89,7.42-15.95Z" class="cls-17"/>
      <path d="M569.91,265.83c-.09.73-.18,1.45-.27,2.18-.42,0-.83,0-1.25,0-.34-3.53,1.11-7.03.13-10.56.29-.26.57-.52.86-.78,1.07,2.1.5,4.49,1.16,6.66,0,0,.02-.04.02-.04-1.11.62-.57,1.66-.65,2.55Z" class="cls-17"/>
      <path d="M564,259c.87-1.94,4.12-4.46,5.38-2.33-.28.26-.57.52-.85.77-.76-.81-3.52,11.55-5.52,10.55-.28-.14-1.9-2.55,1-9Z" class="cls-17"/>
      <path d="M561.17,291.72c-3,5.07-5.94,10.16-7.42,15.95,3.92-4.92,5.38-11.36,10.3-16.3.66,2.15.22,3.72-.23,5.27-2.7,9.27-5.81,18.42-7.96,27.84-1.43,6.3-4.68,11.24-10.46,14.42-1.16.64-2.74,1.15-2.86,2.93-4.87,6.18-9.75,12.36-14.62,18.54-5.69-4.86-10.79-10.33-16-15.66,15.43-16.39,29.38-33.76,36.7-55.51,2.32-4.72,4.64-9.43,6.96-14.15.4-1.26.44-5.17,1.42-6.06,1.4-1.26,2.39-.7,4.7-.12.08,1.01.17,2.02.25,3.02,0,3.73.01,7.46.02,11.19.03.42.06.85.09,1.27-.3,2.45-.59,4.91-.89,7.36Z" class="cls-5"/>
      <path d="M555.58,275.06c-2.32,4.72-4.64,9.43-6.96,14.15.84-8.28,1.64-16.56,3.87-24.62.61-2.22,2.9-6.29,4.49-3.36.74,1.36-.03,3.27.02,4.77.12,3.12,1,3-1.42,9.06Z" class="cls-36"/>
      <path d="M380.05,355.95c.04-1.56-.26-3.23.18-4.67,1.52-5.01-2.6-7.97-4.07-11.88-.44-1.16-1.82-.84-2.78-1.01-12.49-2.2-17.02-10.61-11.9-22.13.89-.73.9-2.2,2.17-2.62.5.66.25,1.83,1.5,2.01,7.04.98,9.29,6.38,11.22,12.12.37,1.11.14,2.69,1.81,3.15.41-8.44-5.93-15.94-14.55-17.25,4.23-5.35,11.3-5.43,15.78-.09,1.39,1.66,2.52,3.53,4.16,5.86.74-3.79,1.44-6.91,1.92-10.07.24-1.61.86-2.07,2.5-2.18,7.28-.48,9.3-2.25,11-9.8.66-2.95,1.3-4.87,5.07-5.41,5.6-.8,8.68-5.03,9.89-10.44,1-4.47,1.84-9,1.56-13.61-.16-2.75.51-3.49,3.26-2.42,15.02,5.81,23.75,16.58,26.03,32.54.22,1.55.43,3.11.65,4.67.16,4.97.31,9.94.47,14.91-.78-.02-1.57-.05-2.35-.06-6.95,0-12.08,4.59-12.28,10.97-.26,8.24,3.99,13.15,11.73,13.53-1.77,4.6-5.88,5.44-10.02,6.25-7.09,1.38-14.28.42-21.41.85-6.73,0-13.46,0-20.2,0-.02.14-.04.27-.06.41,6.7,1.39,13.4,2.78,20.1,4.17.05.73.1,1.47.15,2.2-10.51,0-21.02,0-31.53,0ZM410.11,329.92c.02-7.53-4.7-12.35-12.1-12.37-7.53-.02-12.35,4.7-12.36,12.1-.02,7.53,4.7,12.35,12.1,12.37,7.52.02,12.35-4.7,12.36-12.11ZM435.41,317.6c2.38-.09,3.33-1.69,3.45-3.62.13-2.15-.88-4.06-3.28-4.07-2.18,0-3.2,1.76-3.2,3.76,0,1.96.86,3.55,3.03,3.92ZM404.46,313.6c.05,2.08.77,3.82,3,3.91,2.46.1,3.37-1.72,3.35-3.91-.02-2.04-1.01-3.7-3.2-3.69-2.21,0-3.05,1.67-3.15,3.69ZM416.98,322.82c.79,5.04,3.57,7.86,6.61,7.35,2.83-.47,4.63-3.6,3.99-6.91-4,7.55-5.23,7.05-10.6-.44ZM408.6,302.12c-4.15-.07-5.85,1.04-6.43,4.29,1.09-.82,2.03-1.45,2.87-2.18.97-.84,2.55-.49,3.56-2.11ZM439.6,304.07c-2.57-3.34-3.98-3.67-6.9-1.59,2.62-.11,4.69.82,6.9,1.59Z" class="cls-5"/>
      <path d="M443.01,342.06c-7.73-.38-11.99-5.28-11.73-13.53.2-6.39,5.34-10.98,12.28-10.97.78,0,1.57.04,2.35.06.23,8.29.39,16.57-2.91,24.44Z" class="cls-5"/>
      <path d="M411.42,353.74c-6.7-1.39-13.4-2.78-20.1-4.17.02-.14.04-.27.06-.41,6.73,0,13.46,0,20.2,0-.05,1.53-.1,3.05-.15,4.58Z" class="cls-28"/>
      <path d="M662.76,351.43c6.35.04,11.62,5.42,11.59,11.84-.03,6.14-5.73,11.75-11.89,11.68-6.14-.07-11.72-5.83-11.6-11.98.12-6.44,5.42-11.58,11.9-11.54Z" class="cls-36"/>
      <path d="M645.59,382.04c.23-1.29.46-2.58.7-3.87,6.57.66,12.86,2.54,19.08,3.87h-19.78Z" class="cls-28"/>
      <path d="M656.88,342.91c2,.05,2.95,1.36,3.09,2.99.17,1.95-.57,3.71-2.82,4.01-2.13.29-3.13-.94-3.18-2.99-.05-2.09.89-3.47,2.92-4.02Z" class="cls-28"/>
      <path d="M696.42,355.34c-.07.86-.34,1.53-1.38,1.47-6.4-.36-9.53,3.92-12.37,8.66-.62,1.04-.69,2.57-2.29,2.91,1.43-7.69,8.99-14.87,16.08-13.01,0,0-.03-.04-.03-.04Z" class="cls-28"/>
      <path d="M634.36,341.15c-.23,1.84-1.11,3.32-3.36,3.24-1.95-.07-2.66-1.62-2.59-3.23.08-1.91,1.06-3.7,3.2-3.7,1.99,0,2.76,1.59,2.75,3.68Z" class="cls-28"/>
      <path d="M638.44,351.09c2.82,8.4,4.46,7.32,9.43,2.22-.08,3-3.03,6-5.64,5.73-2.84-.29-4.52-3.35-3.79-7.95Z" class="cls-28"/>
      <path d="M663.58,340.38c-1.87-1.34-3.73-2.67-6.28-4.5,3.79,0,5.53,1.58,6.28,4.5Z" class="cls-17"/>
      <path d="M629.82,331.37c2.19-2.32,4.35-2.42,6.5-.53-2.19.27-4.38.02-6.5.53Z" class="cls-17"/>
      <path d="M562.05,284.36c-.03-.42-.06-.85-.09-1.27,4.66-.19,6.47-2.67,6.16-7.23-.18-2.6.16-5.23.26-7.84.42,0,.83,0,1.25,0-.03,3.36.17,6.75-.17,10.08-.2,1.92-.23,3.4,2.08,4.27-3.32,1.69-6.55,1.17-9.5,2Z" class="cls-17"/>
      <path d="M569.91,265.83c.09-.88-.46-1.93.65-2.55" class="cls-17"/>
      <path d="M568.39,268.01c-.11,2.62-.44,5.25-.26,7.84.31,4.56-1.49,7.04-6.16,7.23,0-3.73-.01-7.46-.02-11.19,2.48-.57,1.14-2.52,1.4-3.89-.16-3.86-.04-8.21,2.69-10.78.66-.63,1.94-.75,2.48.22,1.8,3.19-.48,7.04-.13,10.56Z" class="cls-36"/>
      <path d="M557,271c-.2-4.32,1.13-8.01,2.33-12.04.31-1.04,1.09-1.38,2.14-.96,1.02,3.28.35,6.67.64,10-.14.29-.27.58-.41.87-2.31-.57-3.7.12-4.7,2.12Z" class="cls-36"/>
      <path d="M561.7,268.88c.14-.29.2-2.57.3-2.88,1-3,.94,2.01,1.35,2.01-.27,1.37,1.08,3.32-1.4,3.89-.08-1.01-.17-2.02-.25-3.02Z" class="cls-36"/>
      <path d="M410.11,329.92c-.02,7.4-4.84,12.12-12.36,12.11-7.4-.02-12.12-4.84-12.1-12.37.02-7.4,4.84-12.12,12.36-12.1,7.4.02,12.12,4.84,12.1,12.37Z" class="cls-5"/>
      <path d="M435.41,317.6c-2.17-.37-3.03-1.97-3.03-3.92,0-2,1.03-3.77,3.2-3.76,2.4.01,3.41,1.92,3.28,4.07-.12,1.93-1.07,3.53-3.45,3.62Z" class="cls-28"/>
      <path d="M363.62,313.67c8.62,1.32,14.96,8.81,14.55,17.25-1.66-.46-1.43-2.04-1.81-3.15-1.93-5.74-4.18-11.15-11.22-12.12-1.25-.17-.99-1.35-1.5-2.01,0,0-.03.03-.03.03Z" class="cls-28"/>
      <path d="M404.46,313.6c.1-2.02.94-3.68,3.15-3.69,2.19,0,3.18,1.66,3.2,3.69.02,2.18-.89,4.01-3.35,3.91-2.22-.09-2.95-1.83-3-3.91Z" class="cls-28"/>
      <path d="M416.98,322.82c5.38,7.5,6.6,7.99,10.6.44.64,3.31-1.16,6.43-3.99,6.91-3.04.51-5.82-2.31-6.61-7.35Z" class="cls-28"/>
      <path d="M408.6,302.12c-1.01,1.62-2.59,1.28-3.56,2.11-.85.73-1.79,1.36-2.87,2.18.58-3.26,2.28-4.37,6.43-4.29Z" class="cls-17"/>
      <path d="M439.6,304.07c-2.21-.77-4.28-1.7-6.9-1.59,2.93-2.08,4.33-1.76,6.9,1.59Z" class="cls-17"/>
      <path d="M410.84,272.77c.62,2.2,1.25,4.51.6,6.52-.65,2.01-3.04,3.57-5.56,2.81-1.13-.34-2.28-1.11-3.36-.92-1.29.22-1.55,1.59-1.89,2.67-1.17,3.76-6.01,5.96-10.76,4.89,1.28,1.68.23,3.75-1.51,4.62-1.74.86-3.97.92-6,1.29-2.04.37-4.11,1.25-4.57,2.99-.26.97.03,2.12-.49,2.98-.92,1.52-3.64,1.23-5.75.57-2.11-.66-4.53-1.53-6.24-.67-1.59.8-1.76,2.69-2.17,4.29-.41,1.6-1.73,3.3-3.71,2.86-1.04-.23-1.89-1.01-2.53-1.81-2.88-3.6-2.63-8.5.56-11.02-4.51-3.49-6.71-9.04-5.32-13.47,1.38-4.43,6.26-7.46,11.83-7.37-1.74-3.91-1.24-8.21,1.3-11.16,2.55-2.95,7.06-4.47,11.72-3.94.39-3.41,3.4-6.13,7.32-6.63,3.92-.5,8.52,1.27,11.19,4.29,2.59-1.48,6.2-2.11,9.39-.72,3.19,1.39,5.21,5.28,3.25,7.34,2.93.14,5.91,2.46,6.4,4.99.5,2.53-1.57,4.87-4.43,5.03" class="cls-12"/>
      <path d="M448.03,284.16c-1.54,1.69-3.17,3.43-5.23,3.94-2.05.51-4.63-.7-5.32-3.25-.31-1.14-.25-2.52-.98-3.34-.87-.98-2.17-.49-3.27-.2-3.81.98-8.22-1.97-9.82-6.58-.75,1.97-3.07,2.17-4.72,1.14-1.65-1.03-2.87-2.89-4.26-4.43-1.39-1.54-3.22-2.84-4.95-2.32-.96.29-1.79,1.14-2.8,1.15-1.78.02-2.96-2.45-3.51-4.59-.55-2.14-1.08-4.66-2.71-5.66-1.52-.93-3.22-.08-4.79.41-1.57.49-3.72.27-4.38-1.66-.35-1.01-.14-2.14.21-3.1,1.55-4.34,5.84-6.7,9.67-5.32.59-5.67,4.16-10.46,8.66-11.61,4.49-1.15,9.64,1.4,12.49,6.19,2.41-3.54,6.33-5.37,10.18-4.76,3.85.61,7.51,3.66,9.51,7.9,3.11-1.46,7.01-.33,9.49,2.74,2.48,3.07,3.4,7.91,2.24,11.77,2.62,1.43,5.05,4.16,5.55,7.61.49,3.45-1.75,7.21-4.53,6.63,1.42,2.56,1.02,6.32-.87,8.07-1.89,1.75-4.97,1.23-6.61-1.13" class="cls-12"/>
      <path d="M271.3,444c.76-12.01,4.91-37.81,6.22-49.76,1.1-5.94,2.19-11.88,3.31-17.92,1.14.63,1.04,1.44.9,2.2-3.07,16.92-7.12,46.33-9.31,63.37-.37.16-.76,1.95-1.12,2.11Z" class="cls-17"/>
      <path d="M172.93,427.3c1.96-11.87,8.68-37.13,11.18-48.88,1.69-5.8,3.37-11.6,5.09-17.5,1.07.74.89,1.53.68,2.28-4.75,16.52-11.73,45.38-15.62,62.11-.38.13-.95,1.86-1.33,1.99Z" class="cls-17"/>
      <path d="M371.24,483.44c-3.1-11.62-7.38-37.41-9.94-49.15-.85-5.98-1.7-11.96-2.57-18.04,1.28.23,1.44,1.03,1.56,1.8,2.48,17.01,8,46.18,11.34,63.04-.29.27-.1,2.09-.39,2.36Z" class="cls-17"/>
      <polygon points="116.74 129.76 114.49 133.88 110.37 136.13 114.49 138.38 116.74 142.49 118.99 138.38 123.11 136.13 118.99 133.88 116.74 129.76" class="cls-34"/>
      <polygon points="116.81 159.9 115.29 162.68 112.5 164.21 115.29 165.73 116.81 168.52 118.33 165.73 121.12 164.21 118.33 162.68 116.81 159.9" class="cls-34"/>
      <polygon points="142.15 144.31 138.84 150.36 132.78 153.67 138.84 156.98 142.15 163.04 145.46 156.98 151.51 153.67 145.46 150.36 142.15 144.31" class="cls-34"/>
      <polygon points="811.32 336.72 807.2 334.47 804.95 330.35 802.7 334.47 798.58 336.72 802.7 338.97 804.95 343.09 807.2 338.97 811.32 336.72" class="cls-34"/>
      <polygon points="781.18 336.79 778.39 335.27 776.87 332.48 775.35 335.27 772.56 336.79 775.35 338.31 776.87 341.1 778.39 338.31 781.18 336.79" class="cls-34"/>
      <polygon points="796.77 362.13 790.72 358.82 787.4 352.76 784.09 358.82 778.04 362.13 784.09 365.44 787.4 371.49 790.72 365.44 796.77 362.13" class="cls-34"/>
      <polygon points="328 290.27 325.73 288.76 324.49 286 323.25 288.76 320.98 290.27 323.25 291.77 324.49 294.53 325.73 291.77 328 290.27" class="cls-34"/>
      <polygon points="311.39 290.31 309.86 289.29 309.02 287.43 308.18 289.29 306.65 290.31 308.18 291.33 309.02 293.2 309.86 291.33 311.39 290.31" class="cls-34"/>
      <polygon points="319.98 307.29 316.65 305.07 314.82 301.01 313 305.07 309.66 307.29 313 309.51 314.82 313.56 316.65 309.51 319.98 307.29" class="cls-34"/>
      <polygon points="1042.97 191.97 1048.91 191.85 1054.15 195.07 1053.71 188.94 1056.54 183.72 1050.6 183.83 1045.37 180.62 1045.81 186.75 1042.97 191.97" class="cls-34"/>
      <polygon points="1075.04 172.37 1079.06 172.3 1082.61 174.47 1082.31 170.33 1084.23 166.79 1080.21 166.87 1076.66 164.69 1076.96 168.84 1075.04 172.37" class="cls-34"/>
      <polygon points="1040.96 153.72 1049.7 153.56 1057.4 158.28 1056.76 149.27 1060.93 141.59 1052.19 141.76 1044.49 137.03 1045.13 146.05 1040.96 153.72" class="cls-34"/>
      <path d="M33.71,396.08c1.08,2.68,3.02,8.61,4.01,11.31.42,1.38.85,2.75,1.28,4.15-.24-.06-.3-.24-.36-.42-1.21-3.91-3.53-10.63-4.89-14.51.04-.06-.08-.48-.04-.54Z" class="cls-17"/>
    </g>
    <g>
      <path d="M912.1,206.38l-5.49.88-.18-1.1,5.49-.88.18,1.1ZM901.12,208.15l-5.49.88-.18-1.1,5.49-.88.18,1.1ZM890.15,209.92l-5.49.88-.18-1.1,5.49-.88.18,1.1ZM879.17,211.69l-5.49.88-.18-1.1,5.49-.88.18,1.1ZM912.45,205.09l-1.1.18-.88-5.49,1.1-.18.88,5.49ZM869.67,211.42l-1.1.18-.88-5.49,1.1-.18.88,5.49ZM910.68,194.11l-1.1.18-.88-5.49,1.1-.18.88,5.49ZM867.9,200.45l-1.1.18-.88-5.49,1.1-.18.88,5.49ZM908.91,183.14l-1.1.18-.88-5.49,1.1-.18.88,5.49ZM866.13,189.47l-1.1.18-.88-5.49,1.1-.18.88,5.49ZM907.14,172.16l-1.1.18-.88-5.49,1.1-.18.88,5.49ZM864.36,178.5l-1.1.18-.88-5.49,1.1-.18.88,5.49ZM903.35,163.99l-5.49.88-.18-1.1,5.49-.88.18,1.1ZM892.37,165.76l-5.49.88-.18-1.1,5.49-.88.18,1.1ZM881.4,167.53l-5.49.88-.18-1.1,5.49-.88.18,1.1ZM870.42,169.3l-5.49.88-.18-1.1,5.49-.88.18,1.1Z" class="cls-25"/>
      <path d="M863.54,174.55c-2.23.36-4.33-1.16-4.69-3.39s1.16-4.33,3.39-4.69,4.33,1.16,4.69,3.39-1.16,4.33-3.39,4.69ZM862.41,167.57c-1.62.26-2.73,1.79-2.47,3.41.26,1.62,1.79,2.73,3.41,2.47,1.62-.26,2.73-1.79,2.47-3.41-.26-1.62-1.79-2.73-3.41-2.47Z" class="cls-25"/>
      <path d="M905.64,167.76c-2.23.36-4.33-1.16-4.69-3.39s1.16-4.33,3.39-4.69c2.23-.36,4.33,1.16,4.69,3.39.36,2.23-1.16,4.33-3.39,4.69ZM904.52,160.78c-1.62.26-2.73,1.79-2.47,3.41.26,1.62,1.79,2.73,3.41,2.47,1.62-.26,2.73-1.79,2.47-3.41-.26-1.62-1.79-2.73-3.41-2.47Z" class="cls-25"/>
      <path d="M870.52,217.84c-2.23.36-4.33-1.16-4.69-3.39-.36-2.23,1.16-4.33,3.39-4.69s4.33,1.16,4.69,3.39-1.16,4.33-3.39,4.69ZM869.39,210.87c-1.62.26-2.73,1.79-2.47,3.41.26,1.62,1.79,2.73,3.41,2.47s2.73-1.79,2.47-3.41c-.26-1.62-1.79-2.73-3.41-2.47Z" class="cls-25"/>
      <path d="M912.62,211.06c-2.23.36-4.33-1.16-4.69-3.39s1.16-4.33,3.39-4.69c2.23-.36,4.33,1.16,4.69,3.39s-1.16,4.33-3.39,4.69ZM911.5,204.08c-1.62.26-2.73,1.79-2.47,3.41.26,1.62,1.79,2.73,3.41,2.47,1.62-.26,2.73-1.79,2.47-3.41s-1.79-2.73-3.41-2.47Z" class="cls-25"/>
      <path d="M885.08,180.28l-7.9,1.27-.6-3.75,20.22-3.26.6,3.75-7.9,1.27,3.24,20.09-4.43.71-3.24-20.09Z" class="cls-25"/>
    </g>
    <g>
      <path d="M122.23,225.76l8.62,40.05,36.27-22.75-5.56-30.3c-.19-1.02-1.23-1.63-2.21-1.29l-36.01,12.34c-.81.28-1.28,1.12-1.1,1.95Z" class="cls-23"/>
      <polygon points="167.7 278.4 130.85 265.81 167.11 242.92 192.81 247.3 167.7 278.4" class="cls-23"/>
      <polygon points="132.8 263.28 165.82 242.56 160.01 213.5 125.16 226.1 132.8 263.28" class="cls-23"/>
      <path d="M135.44,265.62c1.73-1.14,13.86-9.15,32.4-21.4l.03-.02h.04c4.53.91,9.43,1.89,14.51,2.91l.18.04-.13.13c-.44.41-.92.86-1.39,1.31-9.3,8.72-17.86,16.76-24.61,23.08l-.03.03h-.04c-12.47-3.61-19.53-5.65-20.96-6.06,1.42.4,8.5,2.39,21,5.91l-.07.02c6.74-6.33,15.29-14.38,24.58-23.11.48-.45.95-.89,1.39-1.31l.05.16c-5.08-1.02-9.98-2-14.51-2.91h.07c-18.6,12.15-30.77,20.11-32.5,21.24Z" class="cls-23"/>
      <path d="M176.34,254.14s.2.03.58.1c.45.09,1,.2,1.66.33,1.52.31,3.56.73,5.99,1.23l.13.03-.08.1c-1.96,2.32-4.29,5.07-6.8,8.05l-.04.05-.06-.02c-.15-.04-.31-.09-.48-.14-3.11-.89-6.03-1.72-8.59-2.45l-.14-.04.11-.1c2.26-2.1,4.17-3.87,5.58-5.19.64-.58,1.16-1.06,1.57-1.45.36-.33.56-.5.56-.5,0,0-.19.2-.55.55-.41.39-.93.89-1.55,1.49-1.39,1.32-3.28,3.11-5.5,5.22l-.03-.14c2.55.72,5.48,1.55,8.59,2.43.16.05.33.09.48.14l-.1.03c2.52-2.97,4.86-5.72,6.83-8.03l.04.13c-2.42-.52-4.44-.96-5.95-1.29-.66-.15-1.21-.27-1.66-.37-.38-.09-.59-.15-.59-.15Z" class="cls-31"/>
      <path d="M179.56,254.65s-1.51,1.78-3.45,3.89c-1.95,2.11-3.56,3.8-3.59,3.76-.04-.04,1.51-1.78,3.45-3.89,1.95-2.11,3.56-3.8,3.59-3.76Z" class="cls-31"/>
      <path d="M144.9,251.42s.02-.11.08-.32c.07-.26.16-.56.25-.91.25-.87.58-1.99.96-3.33.85-2.89,1.99-6.73,3.24-10.96,2.34-7.85,3.94-13.2,4.62-15.49,0,0-.01.11-.06.32-.05.21-.13.52-.23.91-.24.87-.56,2-.93,3.34-.85,2.9-1.97,6.73-3.21,10.97-1.27,4.23-2.42,8.06-3.29,10.95-.41,1.33-.75,2.44-1.02,3.31-.11.34-.2.64-.29.9-.07.2-.11.31-.11.31Z" class="cls-22"/>
      <path d="M143.66,245.79c-.05-.01,1.03-3.97,2.41-8.83,1.38-4.87,2.54-8.8,2.59-8.78.05.01-1.03,3.97-2.41,8.84-1.38,4.86-2.54,8.8-2.59,8.78Z" class="cls-22"/>
    </g>
  </g>
</svg>