<?xml version="1.0" encoding="UTF-8"?>
<svg id="Layer_1" xmlns="http://www.w3.org/2000/svg" viewBox="0 0 565.49 660.45">
  <defs>
    <style>
      .cls-1 {
        fill: #b1654d;
      }

      .cls-2 {
        fill: #240d10;
      }

      .cls-3 {
        fill: #f9fcfd;
      }

      .cls-4 {
        fill: #fbfcfc;
      }

      .cls-5 {
        fill: #070a0b;
      }

      .cls-6 {
        fill: #141414;
      }

      .cls-7 {
        fill: #eac117;
      }

      .cls-8 {
        fill: #fefefe;
      }

      .cls-9 {
        fill: #fef8f9;
      }

      .cls-10 {
        fill: #a5c3cf;
      }

      .cls-11 {
        fill: #241b10;
      }

      .cls-12 {
        fill: #00703c;
      }

      .cls-13 {
        fill: #fefbfb;
      }

      .cls-14 {
        fill: #0f0f0f;
      }

      .cls-15 {
        fill: #fefdfc;
      }
    </style>
  </defs>
  <path class="cls-8" d="M474.62,335.4c0,62.22-.06,124.43.12,186.65.01,4.45-.9,5.35-5.35,5.35-124.43-.15-248.87-.15-373.3,0-4.45,0-5.35-.9-5.35-5.35.15-124.43.15-248.87,0-373.3,0-4.45.9-5.35,5.35-5.35,124.43.15,248.87.15,373.3,0,4.45,0,5.36.89,5.35,5.35-.18,62.22-.12,124.43-.12,186.65ZM280.56,269.33c-4.93-4.13-9.86-8.24-14.78-12.38-2.77-2.33-5.3-2.35-7.58.66-.91-.4-1.84-.75-2.71-1.22-37.67-20.52-79-14.96-109.8,14.8-27.53,26.6-35.93,64.18-22.02,98.56,13.92,34.39,48.04,57.35,84.96,57.76,19.96.22,37.35-6.86,53.87-17.07,2.37,3.13,4.92,2.64,7.49.32,4.53-4.09,9.03-8.22,13.54-12.34,14.57,10.59,29.13,21.17,43.7,31.76-.2,4.47-.58,8.94-.57,13.41.14,39.55,40.29,68.7,77.9,56.63,29.37-9.43,46.79-38.46,41.43-69.06-4.98-28.44-29.43-48.74-58.24-49.03-15.84-.16-28.75,6.47-40.95,15.46-14.68-10.92-28.97-22.38-44.39-32.27,5.68-21.83,5.37-43.45-2.23-64.82,12.63-9.18,25.27-18.36,37.9-27.54,15.28,13.92,33.15,20,53.61,16.49,24.12-4.13,42.98-23.51,48.02-48.35,4.68-23.04-6-48.69-25.75-61.91-20.28-13.57-45.63-13.28-66.53,1.25-20.94,14.56-29.31,34.95-26.76,60.1-2.03,1.38-4.09,2.72-6.08,4.15-11.35,8.21-22.69,16.44-34.03,24.66ZM233.97,210.61c-.7.2-1.69.16-2.06.62-4.28,5.4-8.56,10.8-12.6,16.37-.79,1.09-.5,2.97,1.05,3.88,1.67.97,3.47.91,4.7-.62,3.86-4.82,7.72-9.65,11.3-14.67,1.89-2.65.63-4.6-2.38-5.58ZM208.5,215.48c0-3.42.08-5.89-.02-8.36-.11-2.62-.78-5.26-4.04-5.02-2.76.2-3.2,2.58-3.14,4.99.07,2.47-.4,5.05.16,7.39.96,4.01-3.14,11.47,3.95,11.27,6.23-.18,1.92-7.38,3.09-10.27ZM177.24,213.64c-1.34,0-2.36.46-2.95,1.76-.7,1.53-.53,3.05.64,4.08,4.27,3.73,8.65,7.34,13.01,10.96,1.32,1.09,2.77,1.02,4.04-.08.93-.81,1.66-1.77,1.41-3.19-.37-2.08-14.01-13.57-16.14-13.53Z"/>
  <path class="cls-10" d="M262.5,410.42c-16.52,10.21-33.91,17.3-53.87,17.08-36.93-.4-71.05-23.36-84.96-57.76-13.91-34.37-5.51-71.96,22.02-98.56,30.8-29.75,72.13-35.32,109.8-14.8.87.47,1.81.82,2.72,1.22.36,3.09,2.79,4.47,4.96,6.13,46.82,35.89,48.66,101.73,3.93,140.32-2.03,1.75-4.64,3.1-4.59,6.35ZM207.34,379.63c0-.08,0-.16,0-.24,10.7,0,21.41.21,32.1-.07,6.9-.18,8.52-2.78,7.2-9.59-1.43-7.43-4.05-14.44-8.46-20.53-8.6-11.86-19.8-18.89-35.09-16.3-17.26,2.92-33.28,22.6-33.31,40.14-.01,5.59,3.2,6.62,7.7,6.6,9.95-.03,19.91,0,29.86,0ZM223.83,308.18c-.09-9.14-7.9-16.44-17.71-16.54-9.12-.1-15.62,6.35-15.54,15.4.09,9.55,7.63,17.1,17.05,17.08,9.1-.02,16.28-7.08,16.19-15.95Z"/>
  <path class="cls-7" d="M346.81,397.56c12.2-8.99,25.1-15.62,40.95-15.46,28.8.29,53.26,20.59,58.24,49.03,5.36,30.6-12.05,59.63-41.43,69.06-37.61,12.08-77.75-17.08-77.9-56.63-.02-4.47.37-8.94.56-13.41,3.88-12.45,10.38-23.34,19.58-32.6ZM386.63,470.72v-.07c5.96,0,11.92-.18,17.86.05,5,.19,6.67-1.84,5.9-6.71-1.98-12.44-12.8-22.8-23.98-22.71-11.23.09-21.95,10.55-23.71,23.01-.6,4.24.39,6.67,5.32,6.49,6.19-.23,12.4-.06,18.61-.06ZM385.67,436.13c5.35.13,10.49-4.27,10.83-9.26.37-5.51-5.63-11.58-11.54-11.21-5.62.36-9.28,3.56-9.86,9.25-.57,5.67,4.8,11.08,10.57,11.22ZM433.43,429.74c.12-6.6-17.98-29.18-24.1-29.98-.6-.08-1.57.12-1.83.53-.81,1.28-.11,2.32,1,3.08,9.88,6.78,16.93,15.79,21.38,26.91.29.72,1.38,1.49,2.15,1.54,1.09.07,1.58-.93,1.39-2.08Z"/>
  <path class="cls-1" d="M320.68,240.51c-2.55-25.14,5.83-45.54,26.76-60.1,20.89-14.53,46.25-14.82,66.53-1.25,19.76,13.22,30.43,38.88,25.75,61.91-5.04,24.83-23.9,44.21-48.02,48.35-20.46,3.51-38.33-2.57-53.61-16.49-8.7-9.25-14.36-20.14-17.41-32.43ZM379.87,260.04s0-.08,0-.11c6.93,0,13.87.08,20.8-.04,3.37-.06,6.57-.6,6.37-5.26-.46-10.33-10.02-22.83-19.67-25.87-15.71-4.94-31.13,7.14-33.47,26.56-.5,4.12,2.65,4.73,5.91,4.72,6.69-.02,13.37,0,20.06,0ZM390.99,211.99c-.08-6.32-5.79-11.57-12.37-11.38-6.14.17-10.28,4.36-10.32,10.43-.04,6.75,5.06,11.83,11.74,11.71,6.24-.11,11.03-4.81,10.95-10.76ZM402.85,186.88c-.6.35-1.5.57-1.71,1.07-.75,1.81.71,2.64,1.9,3.48,9.18,6.48,15.85,14.93,20.17,25.29.53,1.28.87,3.4,2.82,2.71,2.5-.89,1.09-3.01.51-4.4-4.5-10.8-11.4-19.73-21.03-26.48-.81-.57-1.67-1.05-2.66-1.67Z"/>
  <path class="cls-12" d="M346.81,397.56c-9.2,9.26-15.7,20.14-19.58,32.6-14.56-10.59-29.13-21.17-43.7-31.76,8.22-9.94,14.18-21.17,18.89-33.12,15.42,9.9,29.71,21.37,44.39,32.28Z"/>
  <path class="cls-12" d="M320.68,240.51c3.05,12.29,8.71,23.18,17.41,32.43-12.64,9.18-25.27,18.36-37.91,27.53-5.01-11.35-11.45-21.8-19.62-31.15,11.34-8.22,22.68-16.45,34.03-24.66,1.99-1.44,4.05-2.77,6.08-4.15Z"/>
  <path class="cls-5" d="M280.56,269.33c8.18,9.35,14.61,19.8,19.62,31.15,7.6,21.37,7.9,42.99,2.23,64.81-4.7,11.94-10.67,23.17-18.89,33.12-4.51,4.11-9.01,8.25-13.54,12.34-2.57,2.32-5.12,2.81-7.49-.32-.04-3.26,2.56-4.61,4.59-6.36,44.73-38.59,42.89-104.44-3.93-140.32-2.17-1.66-4.59-3.04-4.96-6.13,2.28-3.02,4.81-2.99,7.58-.66,4.92,4.14,9.85,8.26,14.78,12.38Z"/>
  <path class="cls-14" d="M233.97,210.61c3.02.98,4.27,2.93,2.38,5.58-3.58,5.03-7.44,9.86-11.3,14.67-1.23,1.53-3.03,1.6-4.7.62-1.55-.9-1.84-2.78-1.05-3.88,4.04-5.57,8.32-10.98,12.6-16.37.37-.46,1.36-.43,2.06-.62Z"/>
  <path class="cls-6" d="M208.5,215.48c-1.17,2.89,3.14,10.09-3.09,10.27-7.09.2-2.99-7.26-3.95-11.27-.56-2.34-.09-4.92-.16-7.39-.07-2.41.38-4.79,3.14-4.99,3.27-.24,3.93,2.4,4.04,5.02.1,2.47.02,4.94.02,8.36Z"/>
  <path class="cls-6" d="M177.24,213.63c2.14-.03,15.78,11.46,16.15,13.53.25,1.42-.47,2.39-1.41,3.19-1.27,1.1-2.72,1.17-4.04.08-4.37-3.62-8.75-7.22-13.01-10.96-1.17-1.02-1.34-2.55-.64-4.08.59-1.3,1.61-1.76,2.95-1.77Z"/>
  <path class="cls-4" d="M207.34,379.63c-9.95,0-19.91-.02-29.86,0-4.5.01-7.71-1.01-7.7-6.6.04-17.54,16.06-37.22,33.31-40.14,15.29-2.59,26.49,4.43,35.09,16.3,4.41,6.09,7.03,13.1,8.46,20.53,1.31,6.81-.3,9.41-7.2,9.59-10.69.28-21.4.07-32.1.07,0,.08,0,.16,0,.24ZM201.8,344.44c-.55-2.63-1.84-2.3-3.35-1.49-7.96,4.29-13.49,10.69-16.48,19.21-.42,1.2-1.44,3.09.63,3.77,2.09.68,2.16-1.34,2.67-2.64,2.76-7.15,7.24-12.86,13.98-16.7,1-.57,1.79-1.5,2.54-2.14Z"/>
  <path class="cls-3" d="M223.83,308.18c.08,8.86-7.09,15.93-16.19,15.95-9.43.02-16.96-7.53-17.05-17.08-.08-9.06,6.42-15.5,15.54-15.4,9.81.1,17.62,7.4,17.71,16.54Z"/>
  <path class="cls-15" d="M386.63,470.72c-6.2,0-12.41-.17-18.61.06-4.93.18-5.92-2.25-5.32-6.49,1.76-12.45,12.48-22.92,23.71-23.01,11.18-.09,22,10.27,23.98,22.71.78,4.87-.9,6.91-5.9,6.71-5.95-.23-11.91-.05-17.86-.05v.07Z"/>
  <path class="cls-13" d="M385.67,436.13c-5.76-.14-11.14-5.54-10.57-11.22.57-5.69,4.24-8.89,9.86-9.25,5.9-.38,11.9,5.7,11.54,11.21-.33,4.98-5.48,9.38-10.83,9.26Z"/>
  <path class="cls-11" d="M433.43,429.74c.18,1.14-.3,2.14-1.39,2.08-.76-.05-1.86-.82-2.15-1.54-4.45-11.11-11.5-20.12-21.38-26.91-1.11-.76-1.81-1.8-1-3.08.26-.41,1.23-.61,1.83-.53,6.12.8,24.22,23.38,24.1,29.98Z"/>
  <path class="cls-13" d="M379.87,260.04c-6.69,0-13.37-.01-20.06,0-3.26,0-6.41-.6-5.91-4.72,2.34-19.42,17.76-31.5,33.47-26.56,9.65,3.04,19.22,15.54,19.67,25.87.21,4.66-3,5.2-6.37,5.26-6.93.12-13.87.04-20.8.04,0,.04,0,.08,0,.11Z"/>
  <path class="cls-9" d="M390.99,211.99c.07,5.95-4.71,10.65-10.95,10.76-6.68.12-11.78-4.97-11.74-11.71.04-6.07,4.18-10.26,10.32-10.43,6.59-.19,12.3,5.07,12.37,11.38Z"/>
  <path class="cls-2" d="M402.85,186.88c.99.62,1.85,1.1,2.66,1.67,9.63,6.74,16.53,15.68,21.03,26.48.58,1.4,1.99,3.51-.51,4.4-1.95.69-2.28-1.43-2.82-2.71-4.32-10.35-11-18.81-20.17-25.29-1.19-.84-2.65-1.67-1.9-3.48.21-.5,1.11-.71,1.71-1.07Z"/>
  <path class="cls-6" d="M201.8,344.44c-.75.64-1.54,1.57-2.54,2.14-6.74,3.85-11.22,9.55-13.98,16.7-.51,1.31-.58,3.33-2.67,2.64-2.08-.68-1.06-2.57-.63-3.77,2.99-8.52,8.52-14.91,16.48-19.21,1.51-.81,2.8-1.14,3.35,1.49Z"/>
</svg>