<?xml version="1.0" encoding="UTF-8"?>
<svg id="Layer_1" xmlns="http://www.w3.org/2000/svg" viewBox="0 0 565.49 660.45">
  <defs>
    <style>
      .cls-1 {
        fill: #b1654d;
      }

      .cls-2 {
        fill: #eac117;
      }

      .cls-3 {
        fill: #2c2930;
      }

      .cls-4 {
        fill: #090c0d;
      }

      .cls-5 {
        fill: #fefefe;
      }

      .cls-6 {
        fill: #171519;
      }

      .cls-7 {
        fill: #a5c3cf;
      }

      .cls-8 {
        fill: #f9fdfc;
      }

      .cls-9 {
        fill: #00703c;
      }
    </style>
  </defs>
  <path class="cls-5" d="M90.74,148.08c125.96,0,251.92.04,377.88-.14,5.11,0,6.13,1,6.12,6.12-.18,123.92-.18,247.85,0,371.77,0,5.11-1,6.12-6.12,6.12-125.96-.18-251.92-.14-377.88-.14,0-127.9,0-255.81,0-383.71ZM423.3,377.24c.15-1.23.42-2.47.42-3.7.03-41.05.17-82.11-.06-123.16-.05-8.21-2.34-16.19-6.67-23.36-5.07-8.38-11.87-13.37-22.38-13.34-83.13.18-166.26.18-249.4-.02-9.6-.02-16.24,4.27-21.2,11.55-5.13,7.52-7.72,16.28-7.75,25.3-.19,61.7-.2,123.41-.02,185.11.04,14.39,11.61,25.96,25.42,25.96,79.65.04,159.29-.03,238.94-.07,2.29.94,4.56,1.95,6.88,2.82,17.22,6.42,32.99,3.18,46.58-8.56,12.86-11.12,18.3-25.54,15.52-42.71-2.66-16.46-11.96-27.95-26.28-35.81Z"/>
  <path class="cls-7" d="M380.6,461.51c-79.65.03-159.29.11-238.94.07-13.8,0-25.37-11.58-25.42-25.96-.18-61.7-.16-123.41.02-185.11.03-9.02,2.62-17.78,7.75-25.3,4.96-7.27,11.6-11.57,21.2-11.55,83.13.2,166.26.2,249.4.02,10.51-.02,17.31,4.96,22.38,13.34,4.33,7.16,6.63,15.15,6.67,23.36.23,41.05.09,82.1.06,123.16,0,1.23-.27,2.47-.42,3.7-3.68-1.21-7.31-2.6-11.27-2.59.74-4.23-1.2-5.57-5.3-5.9-20.42-1.66-41.87,11.65-50.37,31.54-8.22,19.26-3.14,41.8,12.51,55.69,2.45,2.17,4.76,4.56,8.43,2.51,1.1,1.01,2.19,2.02,3.29,3.03ZM276.04,382.57c15.72,0,30.63.21,45.53-.08,9.34-.18,12.67-4.56,10.72-13.42-2.52-11.45-6.39-22.34-12.81-32.32-20.96-32.59-60.21-37.23-87.05-10.09-11.77,11.9-18.01,26.57-20.72,42.84-1.73,10.36,2.41,15.05,13.04,14.04,17.37-1.64,34.74-.44,51.29-.97ZM308.46,441.9c11.31.41,18.99-.08,26.22-3.14,8.12-3.45,12.79-10.88,12.62-19.4-.16-8.01-5.12-14.29-14.01-17.3-7.85-2.66-16.01-3.44-24.25-3.1-29.78,1.22-59.55,2.4-89.36.37-4.37-.3-8.96.49-13.26,1.55-11.63,2.85-18.45,15.29-14.6,26,3.18,8.84,11.59,13.93,24.1,13.94,32.04.01,64.1-1.87,92.55,1.1ZM270.53,295.95c14.39-.05,25.69-10.64,25.92-24.28.23-14.2-13.23-26.63-28.6-26.4-13.8.2-24.51,10.6-24.51,23.81,0,14.73,12.34,26.92,27.19,26.88ZM167.56,233.81c-7.91-1.28-14.65-1.45-21.37.7-6.65,2.13-10.97,6.56-12.81,13.28-2.06,7.5-1.26,15.27-1.99,22.9-.12,1.3.28,2.7,1.76,2.75,1.44.05,1.99-1.32,2.05-2.6.19-3.96.3-7.92.4-11.89.39-16.46,6.83-22.6,23.48-22.62,2.48,0,5.4,1.44,8.48-2.52ZM181.85,445.6c-.37-.27-.95-1.04-1.54-1.05-12.66-.15-25.32-.22-37.98-.27-1.3,0-2.67.56-2.59,2.02.12,2.03,1.89,1.93,3.4,1.93,11.94-.05,23.87-.09,35.81-.17,1.33,0,2.38-.58,2.91-2.46Z"/>
  <path class="cls-9" d="M412.03,374.65c3.96-.01,7.6,1.38,11.27,2.59,14.31,7.87,23.61,19.36,26.27,35.82,2.78,17.17-2.66,31.59-15.52,42.71-13.59,11.75-29.35,14.98-46.58,8.56-2.32-.86-4.59-1.88-6.88-2.82-1.1-1.01-2.19-2.02-3.29-3.03,1.15-3.53-1.13-5.38-3.37-7.51-13.85-13.12-17.97-30.11-11.51-46.73,6.55-16.86,23.45-28.47,41.65-28.53,2.72,0,5.46.53,7.95-1.06ZM396.8,442.41c2.53.13,4.41-1.9,5.75-4.34,6.35-11.61,14.08-22.15,23.42-31.53,2.15-2.16,3.18-4.58.55-7.09-2.75-2.62-4.93-.87-7.01,1.14-6.81,6.57-12.88,13.75-18.08,21.66-1.9,2.89-3.15,7.22-5.79,8.37-3.76,1.63-5.79-3.43-8.76-5.31-2.1-1.33-4.14-1.74-6.2-.28-1.29.91-1.77,2.34-1.46,3.96.65,3.43,13.41,13.58,17.59,13.43Z"/>
  <path class="cls-2" d="M276.04,382.57c-16.55.53-33.92-.67-51.29.97-10.63,1-14.77-3.68-13.04-14.04,2.71-16.26,8.95-30.94,20.72-42.84,26.84-27.13,66.08-22.49,87.05,10.09,6.42,9.98,10.3,20.87,12.81,32.32,1.95,8.86-1.38,13.24-10.72,13.42-14.9.29-29.81.08-45.53.08Z"/>
  <path class="cls-1" d="M308.46,441.9c-28.45-2.97-60.51-1.09-92.55-1.1-12.5,0-20.92-5.1-24.1-13.94-3.85-10.71,2.97-23.14,14.6-26,4.3-1.05,8.88-1.85,13.26-1.55,29.81,2.03,59.58.85,89.36-.37,8.24-.34,16.4.44,24.25,3.1,8.89,3.01,13.85,9.29,14.01,17.3.17,8.53-4.5,15.96-12.62,19.4-7.22,3.07-14.91,3.55-26.22,3.14ZM323.44,413.02c-.18-2.69-.97-3.96-2.37-4.65-2.28-1.13-4.6-.56-6.16,1.16-3.68,4.05-6.97,4.4-10.83.17-1.97-2.15-4.82-2.94-7.25-.5-2.53,2.54-1.51,5.41.86,7.07,4.42,3.1,3.65,5.41-.07,8.38-2.3,1.84-3.27,4.52-.75,7.1,2.17,2.22,4.93,1.91,6.6-.13,4.29-5.24,7.76-4.02,12.15.05,3.09,2.86,8.81.24,7.42-2.73-2.82-6.06-7.85-11.4.4-15.92ZM217.11,420.64c-.45.55-.87,1.18-1.4,1.69-2.69,2.54-6.59,5.28-3.25,9.17,3.51,4.08,6.85.34,9.34-2.17,3.23-3.25,5.07-.97,7.38.97,2.47,2.08,5.32,4.66,8.32,1.3,2.87-3.23.58-5.99-2.04-8.14-2.27-1.87-3.31-3.38-.39-5.69,2.8-2.2,5.68-5.18,2.22-8.6-3.38-3.34-6.26-.19-8.9,2.06-1.64,1.4-2.97,3.31-5.61,1.16-3.01-2.46-6.44-7.58-10.41-2.7-3.8,4.66,2.35,7.03,4.44,10.27.13.2.19.43.31.7ZM259.26,420.59c-.44.56-.84,1.2-1.37,1.71-2.62,2.56-6.75,5.16-3.29,9.16,3.55,4.11,6.84.34,9.39-2.15,2.8-2.73,4.57-1.51,6.86.54,2.55,2.27,5.65,5.41,8.9,1.61,2.7-3.16.38-6.16-2.37-8.21-2.87-2.13-2.37-3.75.08-5.71,2.7-2.16,4.97-5.01,2.19-8.2-2.92-3.35-5.77-.67-8.42,1.26-1.79,1.3-3.05,4.33-6.17,1.82-3.07-2.47-6.42-7.67-10.49-2.84-3.96,4.69,2.19,7.08,4.36,10.28.14.2.21.45.34.73Z"/>
  <path class="cls-2" d="M270.53,295.95c-14.85.05-27.19-12.15-27.19-26.88,0-13.2,10.71-23.61,24.51-23.81,15.37-.22,28.83,12.21,28.6,26.4-.22,13.64-11.53,24.23-25.92,24.28Z"/>
  <path class="cls-4" d="M412.03,374.65c-2.49,1.59-5.23,1.05-7.95,1.06-18.2.06-35.1,11.67-41.65,28.53-6.46,16.63-2.34,33.61,11.51,46.73,2.25,2.13,4.53,3.97,3.37,7.51-3.67,2.05-5.99-.34-8.44-2.51-15.66-13.89-20.74-36.43-12.51-55.69,8.49-19.89,29.95-33.2,50.37-31.54,4.11.33,6.04,1.68,5.3,5.9Z"/>
  <path class="cls-6" d="M167.56,233.81c-3.08,3.96-6,2.52-8.48,2.52-16.65.02-23.08,6.16-23.48,22.62-.09,3.96-.21,7.93-.4,11.89-.06,1.28-.62,2.65-2.05,2.6-1.48-.05-1.88-1.46-1.76-2.75.72-7.63-.07-15.4,1.99-22.9,1.84-6.72,6.16-11.15,12.81-13.28,6.71-2.15,13.46-1.99,21.37-.7Z"/>
  <path class="cls-3" d="M181.85,445.6c-.53,1.87-1.59,2.45-2.91,2.46-11.94.08-23.87.12-35.81.17-1.51,0-3.28.1-3.4-1.93-.09-1.46,1.29-2.03,2.59-2.02,12.66.05,25.32.12,37.98.27.59,0,1.17.78,1.54,1.05Z"/>
  <path class="cls-8" d="M396.8,442.41c-4.18.15-16.94-10-17.59-13.43-.31-1.61.17-3.05,1.46-3.96,2.07-1.45,4.1-1.04,6.2.28,2.98,1.87,5.01,6.94,8.76,5.31,2.64-1.15,3.89-5.48,5.79-8.37,5.19-7.91,11.27-15.09,18.08-21.66,2.08-2.01,4.26-3.76,7.01-1.14,2.64,2.51,1.6,4.93-.55,7.09-9.34,9.38-17.08,19.92-23.42,31.53-1.34,2.44-3.22,4.47-5.75,4.34Z"/>
  <path class="cls-1" d="M323.44,413.02c-8.25,4.52-3.23,9.86-.4,15.92,1.39,2.97-4.33,5.59-7.42,2.73-4.39-4.06-7.85-5.29-12.15-.05-1.67,2.04-4.43,2.35-6.6.13-2.52-2.58-1.55-5.26.75-7.1,3.72-2.97,4.49-5.28.07-8.38-2.38-1.67-3.39-4.54-.86-7.07,2.43-2.44,5.29-1.65,7.25.5,3.86,4.23,7.15,3.88,10.83-.17,1.56-1.72,3.88-2.28,6.16-1.16,1.41.69,2.2,1.96,2.37,4.65Z"/>
  <path class="cls-1" d="M217.11,420.64c-.11-.26-.18-.5-.31-.7-2.09-3.24-8.24-5.61-4.44-10.27,3.97-4.87,7.4.24,10.41,2.7,2.64,2.16,3.98.24,5.61-1.16,2.64-2.26,5.51-5.4,8.9-2.06,3.46,3.42.58,6.4-2.22,8.6-2.93,2.31-1.89,3.83.39,5.69,2.63,2.15,4.92,4.92,2.04,8.14-3,3.37-5.85.78-8.32-1.3-2.31-1.94-4.15-4.21-7.38-.97-2.48,2.5-5.83,6.25-9.34,2.17-3.34-3.89.56-6.63,3.25-9.17.53-.5.95-1.13,1.4-1.69Z"/>
  <path class="cls-1" d="M259.26,420.59c-.13-.28-.2-.53-.34-.73-2.17-3.2-8.32-5.58-4.36-10.28,4.07-4.82,7.42.37,10.49,2.84,3.12,2.51,4.38-.51,6.17-1.82,2.65-1.93,5.5-4.61,8.42-1.26,2.78,3.19.51,6.04-2.19,8.2-2.44,1.96-2.95,3.58-.08,5.71,2.75,2.04,5.07,5.04,2.37,8.21-3.25,3.8-6.34.66-8.9-1.61-2.3-2.05-4.07-3.27-6.86-.54-2.55,2.49-5.84,6.26-9.39,2.15-3.46-4,.67-6.6,3.29-9.16.53-.51.93-1.15,1.37-1.71Z"/>
</svg>