<svg viewBox="0 0 262 227" xmlns="http://www.w3.org/2000/svg" data-name="New Layer"><path style="fill:#fff;fill-rule:evenodd" d="M46.462 154.91v-16.8h5.683q1.9 0 3.3.7 1.4.702 2.167 1.967c.521.833.783 1.825.783 2.967q0 1.737-.783 3-.767 1.25-2.167 1.95t-3.3.7h-3.566v5.516zm2.117-7.483h3.516q4.133 0 4.134-3.65c.001-3.65-1.379-3.65-4.134-3.65h-3.516zm11.169 7.483 6.917-16.8h1.966l6.917 16.8h-2.233l-1.584-3.816h-8.183l-1.533 3.816zm4.617-5.783h6.583l-3.3-8.067zm14.041 5.783v-16.8h6.4c1.167 0 2.183.225 3.05.667a4.8 4.8 0 0 1 2.017 1.85q.714 1.2.716 2.883 0 2.037-1.05 3.367-1.05 1.338-2.9 1.8l4.217 6.233h-2.533l-4.117-6.016h-3.683v6.016zm2.117-8.033h4.05q1.85.002 2.85-.883 1.014-.883 1.016-2.484c.002-1.601-.341-1.891-1.016-2.483q-1-.9-2.85-.9h-4.05zM98.8 154.91v-14.783h-5.683v-2.017h13.466v2.017h-5.666v14.783zm11.07 0v-16.8h1.983l9.3 13.15v-13.15h2.067v16.8h-1.983l-9.284-13.15v13.15zm18.24 0v-16.8h10.2v1.967h-8.083v5.3h7.483v1.95h-7.483v5.617h8.35v1.966zm14.472 0v-16.8h6.4c1.167 0 2.183.225 3.05.667a4.8 4.8 0 0 1 2.017 1.85q.714 1.2.716 2.883 0 2.037-1.05 3.367-1.05 1.338-2.9 1.8l4.217 6.233h-2.533l-4.117-6.016h-3.683v6.016zm2.117-8.033h4.05q1.85.002 2.85-.883 1.014-.883 1.016-2.484c.002-1.601-.341-1.891-1.016-2.483q-1-.9-2.85-.9h-4.05zm19.81 8.35q-2.019-.001-3.5-.683-1.468-.681-2.266-1.917-.802-1.248-.834-2.883h2.117q.047 1.619 1.283 2.55 1.232.917 3.2.916 1.78 0 2.817-.7 1.05-.699 1.05-1.95c0-.775-.342-1.4-1.017-1.866q-1-.713-3.283-1.25-3.086-.732-4.533-1.9c-.959-.775-1.434-1.817-1.434-3.117q0-2.132 1.617-3.383 1.613-1.25 4.383-1.25c1.888 0 3.375.475 4.467 1.416 1.1.946 1.658 2.234 1.683 3.867h-2.1q-.017-1.513-1.116-2.383c-.725-.588-1.7-.884-2.934-.884-1.2 0-2.141.242-2.816.717q-1.019.7-1.017 1.9c0 .692.308 1.275.933 1.75q.95.7 3.4 1.3 3.214.801 4.584 1.983c.908.792 1.366 1.8 1.366 3.034q0 2.186-1.65 3.466-1.637 1.268-4.4 1.267m14.212-.317v-6.05l-6.317-10.75h2.45l2.75 4.7 2.183 3.8 4.934-8.5h2.383l-6.317 10.75v6.05zm11.237 0v-16.8h1.983l9.3 13.15v-13.15h2.067v16.8h-1.983l-9.284-13.15v13.15zm25.673.317c-1.233 0-2.375-.217-3.416-.65a8.2 8.2 0 0 1-2.7-1.817 8 8 0 0 1-1.75-2.75q-.618-1.6-.617-3.5c.001-1.9.204-2.425.617-3.483a8 8 0 0 1 1.75-2.767 8.2 8.2 0 0 1 2.7-1.816c1.041-.434 2.183-.65 3.416-.65q2 0 3.667.733a8.1 8.1 0 0 1 2.85 2.1q1.2 1.35 1.75 3.2h-2.267q-.65-1.83-2.25-2.867-1.586-1.05-3.666-1.05c-1.259 0-2.367.284-3.334.85a6.06 6.06 0 0 0-2.266 2.317c-.546.992-.817 2.133-.817 3.433s.271 2.446.817 3.434a6.13 6.13 0 0 0 2.266 2.333c.967.558 2.075.833 3.334.833q2.131 0 3.783-1.1a5.74 5.74 0 0 0 2.3-3h2.233a8.1 8.1 0 0 1-1.716 3.267 8.4 8.4 0 0 1-2.917 2.167q-1.718.781-3.767.783M91.5 44.325c-22.033 0-40 17.967-40 40s17.967 40 40 40c.35 0 .663 0 1.017-.079 0 0 .037 0 .037-.042 14.296-.466 25.392-10.504 32.85-20.154a120 120 0 0 1-5.546-9.413c-6.17 9.021-16.054 19.688-28.358 19.688-16.642 0-30-13.362-30-30s13.358-30 30-30c10.429 0 19.217 7.421 25.587 15.546 6.367 8.162 9.805 16.367 9.805 16.367.233.545.546 1.016.937 1.445.546 1.288 3.671 8.592 10.429 17.188 7.342 9.333 18.438 19.454 33.125 19.454 22.03 0 40.079-17.854 40.117-39.925.038-22.029-17.85-40.075-39.883-40.075-.392 0-.742.038-1.055.075-14.22.508-25.312 10.471-32.812 20.079a103 103 0 0 1 5.467 9.492c6.212-8.983 16.133-19.646 28.4-19.646 16.6 0 29.921 13.437 29.883 30.075-.038 16.642-13.438 29.925-30.117 29.925-9.962 0-18.829-7.425-25.275-15.625-6.404-8.204-10-16.446-10-16.446a4.7 4.7 0 0 0-.937-1.367c-.546-1.329-3.517-8.558-10.196-17.112-7.304-9.375-18.475-19.45-33.475-19.45M66.57 174.43v-8.966h3.5q1.08 0 1.867.4.798.4 1.233 1.133.45.736.45 1.717 0 .968-.45 1.7c-.291.491-.7.866-1.233 1.133-.525.258-1.146.383-1.867.383h-1.466v2.5zm2.017-4.25h1.317q.798 0 1.216-.366.433-.382.434-1.1c0-.467-.146-.825-.434-1.084q-.418-.382-1.216-.383h-1.317zm6.495 4.25v-8.966h3.817q1.032.001 1.783.383.75.368 1.15 1.067c.275.458.417 1 .417 1.633 0 .667-.15 1.242-.45 1.717a2.7 2.7 0 0 1-1.25 1.05l1.867 3.116h-2.367l-1.6-2.783h-1.333v2.783zm2-4.5h1.55q.75 0 1.15-.35c.275-.241.417-.583.417-1.016s-.142-.767-.417-1q-.4-.35-1.15-.35h-1.55zm11.245 4.684q-1.386 0-2.467-.6a4.4 4.4 0 0 1-1.7-1.65q-.6-1.05-.6-2.417c0-1.367.2-1.717.6-2.417.409-.7.975-1.241 1.7-1.633q1.08-.6 2.467-.6 1.414 0 2.483.6a4.33 4.33 0 0 1 1.7 1.633c.409.7.617 1.509.617 2.417s-.208 1.717-.617 2.417q-.618 1.05-1.7 1.65-1.069.6-2.483.6m-2.7-4.667q0 .82.35 1.433.35.6.95.95.612.35 1.4.35c.542 0 1.017-.116 1.417-.35q.612-.35.95-.95.35-.613.35-1.433a2.83 2.83 0 0 0-.35-1.417 2.37 2.37 0 0 0-.95-.95c-.4-.233-.875-.35-1.417-.35q-.788 0-1.4.35-.6.338-.95.95a2.83 2.83 0 0 0-.35 1.417m8.512 4.483v-1.9h1.334q.813.002 1.133-.383.332-.4.333-1.15v-5.533h2.05v5.683c0 1.033-.291 1.842-.866 2.417q-.851.867-2.534.866zm6.979 0v-8.966h5.883v1.716h-3.867v1.867h3.517v1.7h-3.517v1.95h4v1.733zm11.857.184q-1.35 0-2.4-.6c-1.05-.6-1.25-.95-1.65-1.65q-.586-1.05-.584-2.417c.002-1.367.192-1.717.584-2.417.4-.7.941-1.241 1.633-1.633q1.05-.6 2.4-.6c.767 0 1.458.146 2.083.433a4.44 4.44 0 0 1 2.5 3.1h-2.1a2.15 2.15 0 0 0-.9-1.166q-.651-.433-1.516-.434-.75 0-1.35.35a2.36 2.36 0 0 0-.934.95c-.225.413-.333.884-.333 1.417 0 .546.108 1.025.333 1.433q.33.6.917.95.6.35 1.35.35.88 0 1.55-.45.662-.464.95-1.233h2.1a4.36 4.36 0 0 1-.867 1.9 4.4 4.4 0 0 1-1.616 1.267q-.97.45-2.15.45m8.379-.184v-7.05h-2.85v-1.916h7.717v1.916h-2.834v7.05zm9.345 0v-8.966h1.716l3.184 4.65 3.183-4.65h1.717v8.966h-2.034v-5.383l-2.166 3.167h-1.417l-2.167-3.184v5.4zm10.988 0 3.55-8.966h2l3.567 8.966h-2.184l-.6-1.55h-3.55l-.616 1.55zm3.3-3.15h2.517l-1.267-3.283zm9.161 3.15v-7.05h-2.85v-1.916h7.716v1.916h-2.833v7.05zm10.436.184q-1.35 0-2.4-.6c-1.05-.6-1.25-.95-1.65-1.65q-.585-1.05-.583-2.417c.002-1.367.192-1.717.583-2.417.4-.7.942-1.241 1.634-1.633q1.05-.6 2.4-.6 1.147.001 2.083.433c.633.292 1.167.7 1.6 1.234q.65.786.9 1.866h-2.1a2.16 2.16 0 0 0-.9-1.166c-.433-.288-.942-.434-1.517-.434q-.75 0-1.35.35-.6.338-.933.95c-.225.413-.333.884-.333 1.417 0 .546.108 1.025.333 1.433q.33.6.917.95.6.35 1.35.35.88 0 1.55-.45a2.57 2.57 0 0 0 .95-1.233h2.1a4.38 4.38 0 0 1-2.484 3.167q-.968.45-2.15.45m11.763-.184v-3.616h-3.5v3.616h-2.033v-8.966h2.033v3.45h3.5v-3.45h2.034v8.966zm4.195 0v-8.966h2.033v8.966zm4.185 0v-8.966h1.717l3.967 5.466v-5.466h2.016v8.966h-1.733l-3.95-5.483v5.483zm14.023.184q-1.37 0-2.433-.6-1.068-.6-1.667-1.65c-.599-1.05-.6-1.505-.6-2.417s.192-1.717.583-2.417c.4-.7.95-1.241 1.65-1.633q1.064-.6 2.434-.6 1.081.001 2 .383a4.5 4.5 0 0 1 1.566 1.084q.65.685.917 1.633h-2.183a2.2 2.2 0 0 0-.917-.9q-.6-.332-1.35-.333c-.525 0-.983.125-1.383.366a2.54 2.54 0 0 0-.95.984q-.336.619-.334 1.433-.002.819.334 1.45.332.62.933.983.599.368 1.417.367.999 0 1.65-.5.648-.499.833-1.317h-2.9v-1.583h5.05q.082 1.152-.217 2.117a4.55 4.55 0 0 1-.933 1.666 4.1 4.1 0 0 1-1.5 1.1q-.887.382-2 .384m0 0"></path></svg>